%TF.GenerationSoftware,KiCad,Pcbnew,(5.1.7)-1*%
%TF.CreationDate,2020-11-19T14:16:26-06:00*%
%TF.ProjectId,SLEDBoard,534c4544-426f-4617-9264-2e6b69636164,v01*%
%TF.SameCoordinates,Original*%
%TF.FileFunction,Paste,Top*%
%TF.FilePolarity,Positive*%
%FSLAX46Y46*%
G04 Gerber Fmt 4.6, Leading zero omitted, Abs format (unit mm)*
G04 Created by KiCad (PCBNEW (5.1.7)-1) date 2020-11-19 14:16:26*
%MOMM*%
%LPD*%
G01*
G04 APERTURE LIST*
%ADD10R,1.100000X0.510000*%
%ADD11R,0.450000X0.600000*%
%ADD12R,1.100000X0.900000*%
%ADD13R,0.900000X1.100000*%
G04 APERTURE END LIST*
D10*
%TO.C,3SB1*%
X97485200Y-105410000D03*
X97485200Y-106680000D03*
X97485200Y-107950000D03*
X97485200Y-109220000D03*
X97485200Y-110490000D03*
X97485200Y-111760000D03*
X97485200Y-113030000D03*
X90785200Y-113030000D03*
X90785200Y-111760000D03*
X90785200Y-110490000D03*
X90785200Y-109220000D03*
X90785200Y-107950000D03*
X90785200Y-106680000D03*
X90785200Y-105410000D03*
%TD*%
%TO.C,3SB2*%
X75088000Y-105410000D03*
X75088000Y-106680000D03*
X75088000Y-107950000D03*
X75088000Y-109220000D03*
X75088000Y-110490000D03*
X75088000Y-111760000D03*
X75088000Y-113030000D03*
X81788000Y-113030000D03*
X81788000Y-111760000D03*
X81788000Y-110490000D03*
X81788000Y-109220000D03*
X81788000Y-107950000D03*
X81788000Y-106680000D03*
X81788000Y-105410000D03*
%TD*%
%TO.C,R18*%
G36*
G01*
X52964799Y-83868900D02*
X53864801Y-83868900D01*
G75*
G02*
X54114800Y-84118899I0J-249999D01*
G01*
X54114800Y-84643901D01*
G75*
G02*
X53864801Y-84893900I-249999J0D01*
G01*
X52964799Y-84893900D01*
G75*
G02*
X52714800Y-84643901I0J249999D01*
G01*
X52714800Y-84118899D01*
G75*
G02*
X52964799Y-83868900I249999J0D01*
G01*
G37*
G36*
G01*
X52964799Y-82043900D02*
X53864801Y-82043900D01*
G75*
G02*
X54114800Y-82293899I0J-249999D01*
G01*
X54114800Y-82818901D01*
G75*
G02*
X53864801Y-83068900I-249999J0D01*
G01*
X52964799Y-83068900D01*
G75*
G02*
X52714800Y-82818901I0J249999D01*
G01*
X52714800Y-82293899D01*
G75*
G02*
X52964799Y-82043900I249999J0D01*
G01*
G37*
%TD*%
%TO.C,R16*%
G36*
G01*
X52419699Y-92800100D02*
X53319701Y-92800100D01*
G75*
G02*
X53569700Y-93050099I0J-249999D01*
G01*
X53569700Y-93575101D01*
G75*
G02*
X53319701Y-93825100I-249999J0D01*
G01*
X52419699Y-93825100D01*
G75*
G02*
X52169700Y-93575101I0J249999D01*
G01*
X52169700Y-93050099D01*
G75*
G02*
X52419699Y-92800100I249999J0D01*
G01*
G37*
G36*
G01*
X52419699Y-94625100D02*
X53319701Y-94625100D01*
G75*
G02*
X53569700Y-94875099I0J-249999D01*
G01*
X53569700Y-95400101D01*
G75*
G02*
X53319701Y-95650100I-249999J0D01*
G01*
X52419699Y-95650100D01*
G75*
G02*
X52169700Y-95400101I0J249999D01*
G01*
X52169700Y-94875099D01*
G75*
G02*
X52419699Y-94625100I249999J0D01*
G01*
G37*
%TD*%
%TO.C,R14*%
G36*
G01*
X81990699Y-85256700D02*
X82890701Y-85256700D01*
G75*
G02*
X83140700Y-85506699I0J-249999D01*
G01*
X83140700Y-86031701D01*
G75*
G02*
X82890701Y-86281700I-249999J0D01*
G01*
X81990699Y-86281700D01*
G75*
G02*
X81740700Y-86031701I0J249999D01*
G01*
X81740700Y-85506699D01*
G75*
G02*
X81990699Y-85256700I249999J0D01*
G01*
G37*
G36*
G01*
X81990699Y-83431700D02*
X82890701Y-83431700D01*
G75*
G02*
X83140700Y-83681699I0J-249999D01*
G01*
X83140700Y-84206701D01*
G75*
G02*
X82890701Y-84456700I-249999J0D01*
G01*
X81990699Y-84456700D01*
G75*
G02*
X81740700Y-84206701I0J249999D01*
G01*
X81740700Y-83681699D01*
G75*
G02*
X81990699Y-83431700I249999J0D01*
G01*
G37*
%TD*%
%TO.C,R12*%
G36*
G01*
X82175299Y-94882300D02*
X83075301Y-94882300D01*
G75*
G02*
X83325300Y-95132299I0J-249999D01*
G01*
X83325300Y-95657301D01*
G75*
G02*
X83075301Y-95907300I-249999J0D01*
G01*
X82175299Y-95907300D01*
G75*
G02*
X81925300Y-95657301I0J249999D01*
G01*
X81925300Y-95132299D01*
G75*
G02*
X82175299Y-94882300I249999J0D01*
G01*
G37*
G36*
G01*
X82175299Y-93057300D02*
X83075301Y-93057300D01*
G75*
G02*
X83325300Y-93307299I0J-249999D01*
G01*
X83325300Y-93832301D01*
G75*
G02*
X83075301Y-94082300I-249999J0D01*
G01*
X82175299Y-94082300D01*
G75*
G02*
X81925300Y-93832301I0J249999D01*
G01*
X81925300Y-93307299D01*
G75*
G02*
X82175299Y-93057300I249999J0D01*
G01*
G37*
%TD*%
%TO.C,R10*%
G36*
G01*
X108228999Y-158034000D02*
X109129001Y-158034000D01*
G75*
G02*
X109379000Y-158283999I0J-249999D01*
G01*
X109379000Y-158809001D01*
G75*
G02*
X109129001Y-159059000I-249999J0D01*
G01*
X108228999Y-159059000D01*
G75*
G02*
X107979000Y-158809001I0J249999D01*
G01*
X107979000Y-158283999D01*
G75*
G02*
X108228999Y-158034000I249999J0D01*
G01*
G37*
G36*
G01*
X108228999Y-156209000D02*
X109129001Y-156209000D01*
G75*
G02*
X109379000Y-156458999I0J-249999D01*
G01*
X109379000Y-156984001D01*
G75*
G02*
X109129001Y-157234000I-249999J0D01*
G01*
X108228999Y-157234000D01*
G75*
G02*
X107979000Y-156984001I0J249999D01*
G01*
X107979000Y-156458999D01*
G75*
G02*
X108228999Y-156209000I249999J0D01*
G01*
G37*
%TD*%
%TO.C,R8*%
G36*
G01*
X107750999Y-147893000D02*
X108651001Y-147893000D01*
G75*
G02*
X108901000Y-148142999I0J-249999D01*
G01*
X108901000Y-148668001D01*
G75*
G02*
X108651001Y-148918000I-249999J0D01*
G01*
X107750999Y-148918000D01*
G75*
G02*
X107501000Y-148668001I0J249999D01*
G01*
X107501000Y-148142999D01*
G75*
G02*
X107750999Y-147893000I249999J0D01*
G01*
G37*
G36*
G01*
X107750999Y-146068000D02*
X108651001Y-146068000D01*
G75*
G02*
X108901000Y-146317999I0J-249999D01*
G01*
X108901000Y-146843001D01*
G75*
G02*
X108651001Y-147093000I-249999J0D01*
G01*
X107750999Y-147093000D01*
G75*
G02*
X107501000Y-146843001I0J249999D01*
G01*
X107501000Y-146317999D01*
G75*
G02*
X107750999Y-146068000I249999J0D01*
G01*
G37*
%TD*%
%TO.C,R6*%
G36*
G01*
X77221599Y-158178000D02*
X78121601Y-158178000D01*
G75*
G02*
X78371600Y-158427999I0J-249999D01*
G01*
X78371600Y-158953001D01*
G75*
G02*
X78121601Y-159203000I-249999J0D01*
G01*
X77221599Y-159203000D01*
G75*
G02*
X76971600Y-158953001I0J249999D01*
G01*
X76971600Y-158427999D01*
G75*
G02*
X77221599Y-158178000I249999J0D01*
G01*
G37*
G36*
G01*
X77221599Y-156353000D02*
X78121601Y-156353000D01*
G75*
G02*
X78371600Y-156602999I0J-249999D01*
G01*
X78371600Y-157128001D01*
G75*
G02*
X78121601Y-157378000I-249999J0D01*
G01*
X77221599Y-157378000D01*
G75*
G02*
X76971600Y-157128001I0J249999D01*
G01*
X76971600Y-156602999D01*
G75*
G02*
X77221599Y-156353000I249999J0D01*
G01*
G37*
%TD*%
%TO.C,R4*%
G36*
G01*
X77409399Y-148629000D02*
X78309401Y-148629000D01*
G75*
G02*
X78559400Y-148878999I0J-249999D01*
G01*
X78559400Y-149404001D01*
G75*
G02*
X78309401Y-149654000I-249999J0D01*
G01*
X77409399Y-149654000D01*
G75*
G02*
X77159400Y-149404001I0J249999D01*
G01*
X77159400Y-148878999D01*
G75*
G02*
X77409399Y-148629000I249999J0D01*
G01*
G37*
G36*
G01*
X77409399Y-146804000D02*
X78309401Y-146804000D01*
G75*
G02*
X78559400Y-147053999I0J-249999D01*
G01*
X78559400Y-147579001D01*
G75*
G02*
X78309401Y-147829000I-249999J0D01*
G01*
X77409399Y-147829000D01*
G75*
G02*
X77159400Y-147579001I0J249999D01*
G01*
X77159400Y-147053999D01*
G75*
G02*
X77409399Y-146804000I249999J0D01*
G01*
G37*
%TD*%
D11*
%TO.C,D1*%
X80145400Y-149279000D03*
X80145400Y-147179000D03*
%TD*%
%TO.C,D2*%
X79957600Y-156728000D03*
X79957600Y-158828000D03*
%TD*%
%TO.C,D3*%
X110487000Y-146443000D03*
X110487000Y-148543000D03*
%TD*%
%TO.C,D4*%
X110965000Y-158684000D03*
X110965000Y-156584000D03*
%TD*%
%TO.C,D5*%
X84911300Y-93432300D03*
X84911300Y-95532300D03*
%TD*%
%TO.C,D6*%
X84726700Y-83806700D03*
X84726700Y-85906700D03*
%TD*%
%TO.C,D7*%
X55155700Y-95275100D03*
X55155700Y-93175100D03*
%TD*%
%TO.C,D8*%
X55764000Y-84518900D03*
X55764000Y-82418900D03*
%TD*%
D12*
%TO.C,LED1*%
X62224920Y-125100080D03*
X62224920Y-123830080D03*
X62224920Y-122560080D03*
X62224920Y-121290080D03*
X57324920Y-125100080D03*
X57324920Y-123830080D03*
X57324920Y-122560080D03*
X57324920Y-121290080D03*
%TD*%
%TO.C,LED2*%
X57324920Y-131450080D03*
X57324920Y-132720080D03*
X57324920Y-133990080D03*
X57324920Y-135260080D03*
X62224920Y-131450080D03*
X62224920Y-132720080D03*
X62224920Y-133990080D03*
X62224920Y-135260080D03*
%TD*%
D13*
%TO.C,LED3*%
X70479920Y-120824920D03*
X69209920Y-120824920D03*
X67939920Y-120824920D03*
X66669920Y-120824920D03*
X70479920Y-125724920D03*
X69209920Y-125724920D03*
X67939920Y-125724920D03*
X66669920Y-125724920D03*
%TD*%
%TO.C,LED4*%
X70490080Y-130815080D03*
X69220080Y-130815080D03*
X67950080Y-130815080D03*
X66680080Y-130815080D03*
X70490080Y-135715080D03*
X69220080Y-135715080D03*
X67950080Y-135715080D03*
X66680080Y-135715080D03*
%TD*%
D12*
%TO.C,LED5*%
X80004920Y-125100080D03*
X80004920Y-123830080D03*
X80004920Y-122560080D03*
X80004920Y-121290080D03*
X75104920Y-125100080D03*
X75104920Y-123830080D03*
X75104920Y-122560080D03*
X75104920Y-121290080D03*
%TD*%
%TO.C,LED6*%
X75104920Y-131450080D03*
X75104920Y-132720080D03*
X75104920Y-133990080D03*
X75104920Y-135260080D03*
X80004920Y-131450080D03*
X80004920Y-132720080D03*
X80004920Y-133990080D03*
X80004920Y-135260080D03*
%TD*%
D13*
%TO.C,LED7*%
X88259920Y-120824920D03*
X86989920Y-120824920D03*
X85719920Y-120824920D03*
X84449920Y-120824920D03*
X88259920Y-125724920D03*
X86989920Y-125724920D03*
X85719920Y-125724920D03*
X84449920Y-125724920D03*
%TD*%
%TO.C,LED8*%
X84460080Y-135715080D03*
X85730080Y-135715080D03*
X87000080Y-135715080D03*
X88270080Y-135715080D03*
X84460080Y-130815080D03*
X85730080Y-130815080D03*
X87000080Y-130815080D03*
X88270080Y-130815080D03*
%TD*%
D12*
%TO.C,LED9*%
X97784920Y-125100080D03*
X97784920Y-123830080D03*
X97784920Y-122560080D03*
X97784920Y-121290080D03*
X92884920Y-125100080D03*
X92884920Y-123830080D03*
X92884920Y-122560080D03*
X92884920Y-121290080D03*
%TD*%
%TO.C,LED10*%
X97784920Y-135260080D03*
X97784920Y-133990080D03*
X97784920Y-132720080D03*
X97784920Y-131450080D03*
X92884920Y-135260080D03*
X92884920Y-133990080D03*
X92884920Y-132720080D03*
X92884920Y-131450080D03*
%TD*%
M02*
