M48
; DRILL file {KiCad (5.1.7)-1} date 11/19/20 14:16:37
; FORMAT={-:-/ absolute / inch / decimal}
; #@! TF.CreationDate,2020-11-19T14:16:37-06:00
; #@! TF.GenerationSoftware,Kicad,Pcbnew,(5.1.7)-1
; #@! TF.FileFunction,Plated,1,2,PTH
FMAT,2
INCH
T1C0.0157
T2C0.0300
T3C0.0315
T4C0.0394
%
G90
G05
T1
X2.2048Y-5.3252
X2.4952Y-4.8252
X2.4952Y-5.2752
X2.8198Y-5.1502
X2.82Y-4.95
X2.9005Y-3.9464
X3.1952Y-4.8252
X3.1952Y-5.2752
X3.5198Y-5.1502
X3.52Y-4.95
X3.5261Y-4.2651
X3.68Y-5.13
X3.73Y-4.91
X3.73Y-4.97
X3.73Y-5.15
X3.8952Y-4.8252
X3.8952Y-4.8752
X3.8952Y-5.3252
X3.9052Y-5.2752
T2
X2.2858Y-6.0
X2.3858Y-6.0
X2.4858Y-6.0
X2.5858Y-6.0
X2.6858Y-6.0
X2.7858Y-6.0
X2.8858Y-6.0
X3.5Y-6.0
X3.6Y-6.0
X3.7Y-6.0
X3.8Y-6.0
X3.9Y-6.0
X4.0Y-6.0
X4.1Y-6.0
X2.2868Y-5.7
X2.3868Y-5.7
X2.4868Y-5.7
X2.5868Y-5.7
X2.6868Y-5.7
X2.7868Y-5.7
X2.8868Y-5.7
X2.35Y-3.75
X2.45Y-3.75
X2.55Y-3.75
X2.65Y-3.75
X2.75Y-3.75
X2.85Y-3.75
X2.95Y-3.75
X3.5Y-5.7
X3.6Y-5.7
X3.7Y-5.7
X3.8Y-5.7
X3.9Y-5.7
X4.0Y-5.7
X4.1Y-5.7
X3.5Y-3.5
X3.6Y-3.5
X3.7Y-3.5
X3.8Y-3.5
X3.9Y-3.5
X4.0Y-3.5
X4.1Y-3.5
X3.5Y-3.75
X3.6Y-3.75
X3.7Y-3.75
X3.8Y-3.75
X3.9Y-3.75
X4.0Y-3.75
X4.1Y-3.75
X2.35Y-3.5
X2.45Y-3.5
X2.55Y-3.5
X2.65Y-3.5
X2.75Y-3.5
X2.85Y-3.5
X2.95Y-3.5
T3
X1.9931Y-5.4821
X1.9931Y-5.6821
X1.5Y-4.0
X1.5Y-4.1
X1.5Y-4.2
X1.5Y-4.3
X1.5Y-4.4
X1.5Y-4.5
X1.5Y-4.6
X1.5Y-4.7
X1.5Y-4.8
X1.5Y-4.9
X1.5Y-5.0
X1.5Y-5.1
X1.5Y-5.2
X1.5Y-5.3
X1.5Y-5.4
X1.5Y-5.668
X1.5Y-5.768
T4
X1.843Y-4.155
X1.843Y-4.455
X1.943Y-4.155
X1.943Y-4.455
X2.043Y-4.155
X2.043Y-4.455
X2.143Y-4.155
X2.143Y-4.455
X2.243Y-4.155
X2.243Y-4.455
X2.343Y-4.155
X2.343Y-4.455
X2.443Y-4.155
X2.443Y-4.455
X2.543Y-4.155
X2.543Y-4.455
T0
M30
