%TF.GenerationSoftware,KiCad,Pcbnew,(5.1.7)-1*%
%TF.CreationDate,2020-11-19T14:16:26-06:00*%
%TF.ProjectId,SLEDBoard,534c4544-426f-4617-9264-2e6b69636164,v01*%
%TF.SameCoordinates,Original*%
%TF.FileFunction,Copper,L1,Top*%
%TF.FilePolarity,Positive*%
%FSLAX46Y46*%
G04 Gerber Fmt 4.6, Leading zero omitted, Abs format (unit mm)*
G04 Created by KiCad (PCBNEW (5.1.7)-1) date 2020-11-19 14:16:26*
%MOMM*%
%LPD*%
G01*
G04 APERTURE LIST*
%TA.AperFunction,ComponentPad*%
%ADD10C,1.524000*%
%TD*%
%TA.AperFunction,SMDPad,CuDef*%
%ADD11R,1.100000X0.510000*%
%TD*%
%TA.AperFunction,SMDPad,CuDef*%
%ADD12R,0.450000X0.600000*%
%TD*%
%TA.AperFunction,ComponentPad*%
%ADD13R,1.600000X1.600000*%
%TD*%
%TA.AperFunction,ComponentPad*%
%ADD14C,1.600000*%
%TD*%
%TA.AperFunction,SMDPad,CuDef*%
%ADD15R,1.100000X0.900000*%
%TD*%
%TA.AperFunction,SMDPad,CuDef*%
%ADD16R,0.900000X1.100000*%
%TD*%
%TA.AperFunction,ComponentPad*%
%ADD17O,1.600000X1.600000*%
%TD*%
%TA.AperFunction,ComponentPad*%
%ADD18C,2.000000*%
%TD*%
%TA.AperFunction,ViaPad*%
%ADD19C,0.800000*%
%TD*%
%TA.AperFunction,Conductor*%
%ADD20C,0.250000*%
%TD*%
%TA.AperFunction,Conductor*%
%ADD21C,0.431800*%
%TD*%
G04 APERTURE END LIST*
D10*
%TO.P,U10,VIN*%
%TO.N,VDD*%
X74930000Y-88900000D03*
%TO.P,U10,GND*%
%TO.N,GND*%
X72390000Y-88900000D03*
%TO.P,U10,3V3*%
%TO.N,N/C*%
X69850000Y-88900000D03*
%TO.P,U10,SCL*%
%TO.N,Net-(R1-Pad2)*%
X67310000Y-88900000D03*
%TO.P,U10,SDA*%
%TO.N,Net-(3SB2-Pad8)*%
X64770000Y-88900000D03*
%TO.P,U10,INT*%
%TO.N,Net-(U10-PadINT)*%
X62230000Y-88900000D03*
%TO.P,U10,LED*%
%TO.N,GND*%
X59690000Y-88900000D03*
%TD*%
%TO.P,U9,VIN*%
%TO.N,VDD*%
X74930000Y-95250000D03*
%TO.P,U9,GND*%
%TO.N,GND*%
X72390000Y-95250000D03*
%TO.P,U9,3V3*%
%TO.N,N/C*%
X69850000Y-95250000D03*
%TO.P,U9,SCL*%
%TO.N,Net-(R1-Pad2)*%
X67310000Y-95250000D03*
%TO.P,U9,SDA*%
%TO.N,Net-(3SB2-Pad11)*%
X64770000Y-95250000D03*
%TO.P,U9,INT*%
%TO.N,Net-(U10-PadINT)*%
X62230000Y-95250000D03*
%TO.P,U9,LED*%
%TO.N,GND*%
X59690000Y-95250000D03*
%TD*%
%TO.P,U8,VIN*%
%TO.N,VDD*%
X104140000Y-88900000D03*
%TO.P,U8,GND*%
%TO.N,GND*%
X101600000Y-88900000D03*
%TO.P,U8,3V3*%
%TO.N,N/C*%
X99060000Y-88900000D03*
%TO.P,U8,SCL*%
%TO.N,Net-(R1-Pad2)*%
X96520000Y-88900000D03*
%TO.P,U8,SDA*%
%TO.N,Net-(3SB2-Pad3)*%
X93980000Y-88900000D03*
%TO.P,U8,INT*%
%TO.N,Net-(U10-PadINT)*%
X91440000Y-88900000D03*
%TO.P,U8,LED*%
%TO.N,GND*%
X88900000Y-88900000D03*
%TD*%
%TO.P,U7,VIN*%
%TO.N,VDD*%
X104140000Y-95250000D03*
%TO.P,U7,GND*%
%TO.N,GND*%
X101600000Y-95250000D03*
%TO.P,U7,3V3*%
%TO.N,N/C*%
X99060000Y-95250000D03*
%TO.P,U7,SCL*%
%TO.N,Net-(R1-Pad2)*%
X96520000Y-95250000D03*
%TO.P,U7,SDA*%
%TO.N,Net-(3SB2-Pad6)*%
X93980000Y-95250000D03*
%TO.P,U7,INT*%
%TO.N,Net-(U10-PadINT)*%
X91440000Y-95250000D03*
%TO.P,U7,LED*%
%TO.N,GND*%
X88900000Y-95250000D03*
%TD*%
%TO.P,U6,VIN*%
%TO.N,VDD*%
X88900000Y-152400000D03*
%TO.P,U6,GND*%
%TO.N,GND*%
X91440000Y-152400000D03*
%TO.P,U6,3V3*%
%TO.N,N/C*%
X93980000Y-152400000D03*
%TO.P,U6,SCL*%
%TO.N,Net-(R1-Pad2)*%
X96520000Y-152400000D03*
%TO.P,U6,SDA*%
%TO.N,Net-(3SB1-Pad8)*%
X99060000Y-152400000D03*
%TO.P,U6,INT*%
%TO.N,Net-(U10-PadINT)*%
X101600000Y-152400000D03*
%TO.P,U6,LED*%
%TO.N,GND*%
X104140000Y-152400000D03*
%TD*%
%TO.P,U5,VIN*%
%TO.N,VDD*%
X88900000Y-144780000D03*
%TO.P,U5,GND*%
%TO.N,GND*%
X91440000Y-144780000D03*
%TO.P,U5,3V3*%
%TO.N,N/C*%
X93980000Y-144780000D03*
%TO.P,U5,SCL*%
%TO.N,Net-(R1-Pad2)*%
X96520000Y-144780000D03*
%TO.P,U5,SDA*%
%TO.N,Net-(3SB1-Pad11)*%
X99060000Y-144780000D03*
%TO.P,U5,INT*%
%TO.N,Net-(U10-PadINT)*%
X101600000Y-144780000D03*
%TO.P,U5,LED*%
%TO.N,GND*%
X104140000Y-144780000D03*
%TD*%
%TO.P,U4,VIN*%
%TO.N,VDD*%
X58060000Y-152400000D03*
%TO.P,U4,GND*%
%TO.N,GND*%
X60600000Y-152400000D03*
%TO.P,U4,3V3*%
%TO.N,N/C*%
X63140000Y-152400000D03*
%TO.P,U4,SCL*%
%TO.N,Net-(R1-Pad2)*%
X65680000Y-152400000D03*
%TO.P,U4,SDA*%
%TO.N,Net-(3SB1-Pad3)*%
X68220000Y-152400000D03*
%TO.P,U4,INT*%
%TO.N,Net-(U10-PadINT)*%
X70760000Y-152400000D03*
%TO.P,U4,LED*%
%TO.N,GND*%
X73300000Y-152400000D03*
%TD*%
%TO.P,U3,VIN*%
%TO.N,VDD*%
X58085000Y-144780000D03*
%TO.P,U3,GND*%
%TO.N,GND*%
X60625000Y-144780000D03*
%TO.P,U3,3V3*%
%TO.N,N/C*%
X63165000Y-144780000D03*
%TO.P,U3,SCL*%
%TO.N,Net-(R1-Pad2)*%
X65705000Y-144780000D03*
%TO.P,U3,SDA*%
%TO.N,Net-(3SB1-Pad6)*%
X68245000Y-144780000D03*
%TO.P,U3,INT*%
%TO.N,Net-(U10-PadINT)*%
X70785000Y-144780000D03*
%TO.P,U3,LED*%
%TO.N,GND*%
X73325000Y-144780000D03*
%TD*%
D11*
%TO.P,3SB1,14*%
%TO.N,VDD*%
X97485200Y-105410000D03*
%TO.P,3SB1,13*%
%TO.N,/~Y2*%
X97485200Y-106680000D03*
%TO.P,3SB1,12*%
X97485200Y-107950000D03*
%TO.P,3SB1,11*%
%TO.N,Net-(3SB1-Pad11)*%
X97485200Y-109220000D03*
%TO.P,3SB1,10*%
%TO.N,/~Y3*%
X97485200Y-110490000D03*
%TO.P,3SB1,9*%
X97485200Y-111760000D03*
%TO.P,3SB1,8*%
%TO.N,Net-(3SB1-Pad8)*%
X97485200Y-113030000D03*
%TO.P,3SB1,7*%
%TO.N,GND*%
X90785200Y-113030000D03*
%TO.P,3SB1,6*%
%TO.N,Net-(3SB1-Pad6)*%
X90785200Y-111760000D03*
%TO.P,3SB1,5*%
%TO.N,/~Y1*%
X90785200Y-110490000D03*
%TO.P,3SB1,4*%
X90785200Y-109220000D03*
%TO.P,3SB1,3*%
%TO.N,Net-(3SB1-Pad3)*%
X90785200Y-107950000D03*
%TO.P,3SB1,2*%
%TO.N,/~Y0*%
X90785200Y-106680000D03*
%TO.P,3SB1,1*%
X90785200Y-105410000D03*
%TD*%
%TO.P,3SB2,1*%
%TO.N,/~Y4*%
X75088000Y-105410000D03*
%TO.P,3SB2,2*%
X75088000Y-106680000D03*
%TO.P,3SB2,3*%
%TO.N,Net-(3SB2-Pad3)*%
X75088000Y-107950000D03*
%TO.P,3SB2,4*%
%TO.N,/~Y5*%
X75088000Y-109220000D03*
%TO.P,3SB2,5*%
X75088000Y-110490000D03*
%TO.P,3SB2,6*%
%TO.N,Net-(3SB2-Pad6)*%
X75088000Y-111760000D03*
%TO.P,3SB2,7*%
%TO.N,GND*%
X75088000Y-113030000D03*
%TO.P,3SB2,8*%
%TO.N,Net-(3SB2-Pad8)*%
X81788000Y-113030000D03*
%TO.P,3SB2,9*%
%TO.N,/~Y7*%
X81788000Y-111760000D03*
%TO.P,3SB2,10*%
X81788000Y-110490000D03*
%TO.P,3SB2,11*%
%TO.N,Net-(3SB2-Pad11)*%
X81788000Y-109220000D03*
%TO.P,3SB2,12*%
%TO.N,/~Y6*%
X81788000Y-107950000D03*
%TO.P,3SB2,13*%
X81788000Y-106680000D03*
%TO.P,3SB2,14*%
%TO.N,VDD*%
X81788000Y-105410000D03*
%TD*%
%TO.P,R18,2*%
%TO.N,Net-(D1-Pad2)*%
%TA.AperFunction,SMDPad,CuDef*%
G36*
G01*
X52964799Y-83868900D02*
X53864801Y-83868900D01*
G75*
G02*
X54114800Y-84118899I0J-249999D01*
G01*
X54114800Y-84643901D01*
G75*
G02*
X53864801Y-84893900I-249999J0D01*
G01*
X52964799Y-84893900D01*
G75*
G02*
X52714800Y-84643901I0J249999D01*
G01*
X52714800Y-84118899D01*
G75*
G02*
X52964799Y-83868900I249999J0D01*
G01*
G37*
%TD.AperFunction*%
%TO.P,R18,1*%
%TO.N,Net-(3SB2-Pad8)*%
%TA.AperFunction,SMDPad,CuDef*%
G36*
G01*
X52964799Y-82043900D02*
X53864801Y-82043900D01*
G75*
G02*
X54114800Y-82293899I0J-249999D01*
G01*
X54114800Y-82818901D01*
G75*
G02*
X53864801Y-83068900I-249999J0D01*
G01*
X52964799Y-83068900D01*
G75*
G02*
X52714800Y-82818901I0J249999D01*
G01*
X52714800Y-82293899D01*
G75*
G02*
X52964799Y-82043900I249999J0D01*
G01*
G37*
%TD.AperFunction*%
%TD*%
%TO.P,R16,1*%
%TO.N,Net-(3SB2-Pad11)*%
%TA.AperFunction,SMDPad,CuDef*%
G36*
G01*
X52419699Y-92800100D02*
X53319701Y-92800100D01*
G75*
G02*
X53569700Y-93050099I0J-249999D01*
G01*
X53569700Y-93575101D01*
G75*
G02*
X53319701Y-93825100I-249999J0D01*
G01*
X52419699Y-93825100D01*
G75*
G02*
X52169700Y-93575101I0J249999D01*
G01*
X52169700Y-93050099D01*
G75*
G02*
X52419699Y-92800100I249999J0D01*
G01*
G37*
%TD.AperFunction*%
%TO.P,R16,2*%
%TO.N,Net-(D1-Pad2)*%
%TA.AperFunction,SMDPad,CuDef*%
G36*
G01*
X52419699Y-94625100D02*
X53319701Y-94625100D01*
G75*
G02*
X53569700Y-94875099I0J-249999D01*
G01*
X53569700Y-95400101D01*
G75*
G02*
X53319701Y-95650100I-249999J0D01*
G01*
X52419699Y-95650100D01*
G75*
G02*
X52169700Y-95400101I0J249999D01*
G01*
X52169700Y-94875099D01*
G75*
G02*
X52419699Y-94625100I249999J0D01*
G01*
G37*
%TD.AperFunction*%
%TD*%
%TO.P,R14,2*%
%TO.N,Net-(D1-Pad2)*%
%TA.AperFunction,SMDPad,CuDef*%
G36*
G01*
X81990699Y-85256700D02*
X82890701Y-85256700D01*
G75*
G02*
X83140700Y-85506699I0J-249999D01*
G01*
X83140700Y-86031701D01*
G75*
G02*
X82890701Y-86281700I-249999J0D01*
G01*
X81990699Y-86281700D01*
G75*
G02*
X81740700Y-86031701I0J249999D01*
G01*
X81740700Y-85506699D01*
G75*
G02*
X81990699Y-85256700I249999J0D01*
G01*
G37*
%TD.AperFunction*%
%TO.P,R14,1*%
%TO.N,Net-(3SB2-Pad3)*%
%TA.AperFunction,SMDPad,CuDef*%
G36*
G01*
X81990699Y-83431700D02*
X82890701Y-83431700D01*
G75*
G02*
X83140700Y-83681699I0J-249999D01*
G01*
X83140700Y-84206701D01*
G75*
G02*
X82890701Y-84456700I-249999J0D01*
G01*
X81990699Y-84456700D01*
G75*
G02*
X81740700Y-84206701I0J249999D01*
G01*
X81740700Y-83681699D01*
G75*
G02*
X81990699Y-83431700I249999J0D01*
G01*
G37*
%TD.AperFunction*%
%TD*%
%TO.P,R12,2*%
%TO.N,Net-(D1-Pad2)*%
%TA.AperFunction,SMDPad,CuDef*%
G36*
G01*
X82175299Y-94882300D02*
X83075301Y-94882300D01*
G75*
G02*
X83325300Y-95132299I0J-249999D01*
G01*
X83325300Y-95657301D01*
G75*
G02*
X83075301Y-95907300I-249999J0D01*
G01*
X82175299Y-95907300D01*
G75*
G02*
X81925300Y-95657301I0J249999D01*
G01*
X81925300Y-95132299D01*
G75*
G02*
X82175299Y-94882300I249999J0D01*
G01*
G37*
%TD.AperFunction*%
%TO.P,R12,1*%
%TO.N,Net-(3SB2-Pad6)*%
%TA.AperFunction,SMDPad,CuDef*%
G36*
G01*
X82175299Y-93057300D02*
X83075301Y-93057300D01*
G75*
G02*
X83325300Y-93307299I0J-249999D01*
G01*
X83325300Y-93832301D01*
G75*
G02*
X83075301Y-94082300I-249999J0D01*
G01*
X82175299Y-94082300D01*
G75*
G02*
X81925300Y-93832301I0J249999D01*
G01*
X81925300Y-93307299D01*
G75*
G02*
X82175299Y-93057300I249999J0D01*
G01*
G37*
%TD.AperFunction*%
%TD*%
%TO.P,R10,2*%
%TO.N,Net-(D1-Pad2)*%
%TA.AperFunction,SMDPad,CuDef*%
G36*
G01*
X108228999Y-158034000D02*
X109129001Y-158034000D01*
G75*
G02*
X109379000Y-158283999I0J-249999D01*
G01*
X109379000Y-158809001D01*
G75*
G02*
X109129001Y-159059000I-249999J0D01*
G01*
X108228999Y-159059000D01*
G75*
G02*
X107979000Y-158809001I0J249999D01*
G01*
X107979000Y-158283999D01*
G75*
G02*
X108228999Y-158034000I249999J0D01*
G01*
G37*
%TD.AperFunction*%
%TO.P,R10,1*%
%TO.N,Net-(3SB1-Pad8)*%
%TA.AperFunction,SMDPad,CuDef*%
G36*
G01*
X108228999Y-156209000D02*
X109129001Y-156209000D01*
G75*
G02*
X109379000Y-156458999I0J-249999D01*
G01*
X109379000Y-156984001D01*
G75*
G02*
X109129001Y-157234000I-249999J0D01*
G01*
X108228999Y-157234000D01*
G75*
G02*
X107979000Y-156984001I0J249999D01*
G01*
X107979000Y-156458999D01*
G75*
G02*
X108228999Y-156209000I249999J0D01*
G01*
G37*
%TD.AperFunction*%
%TD*%
%TO.P,R8,2*%
%TO.N,Net-(D1-Pad2)*%
%TA.AperFunction,SMDPad,CuDef*%
G36*
G01*
X107750999Y-147893000D02*
X108651001Y-147893000D01*
G75*
G02*
X108901000Y-148142999I0J-249999D01*
G01*
X108901000Y-148668001D01*
G75*
G02*
X108651001Y-148918000I-249999J0D01*
G01*
X107750999Y-148918000D01*
G75*
G02*
X107501000Y-148668001I0J249999D01*
G01*
X107501000Y-148142999D01*
G75*
G02*
X107750999Y-147893000I249999J0D01*
G01*
G37*
%TD.AperFunction*%
%TO.P,R8,1*%
%TO.N,Net-(3SB1-Pad11)*%
%TA.AperFunction,SMDPad,CuDef*%
G36*
G01*
X107750999Y-146068000D02*
X108651001Y-146068000D01*
G75*
G02*
X108901000Y-146317999I0J-249999D01*
G01*
X108901000Y-146843001D01*
G75*
G02*
X108651001Y-147093000I-249999J0D01*
G01*
X107750999Y-147093000D01*
G75*
G02*
X107501000Y-146843001I0J249999D01*
G01*
X107501000Y-146317999D01*
G75*
G02*
X107750999Y-146068000I249999J0D01*
G01*
G37*
%TD.AperFunction*%
%TD*%
%TO.P,R6,2*%
%TO.N,Net-(D1-Pad2)*%
%TA.AperFunction,SMDPad,CuDef*%
G36*
G01*
X77221599Y-158178000D02*
X78121601Y-158178000D01*
G75*
G02*
X78371600Y-158427999I0J-249999D01*
G01*
X78371600Y-158953001D01*
G75*
G02*
X78121601Y-159203000I-249999J0D01*
G01*
X77221599Y-159203000D01*
G75*
G02*
X76971600Y-158953001I0J249999D01*
G01*
X76971600Y-158427999D01*
G75*
G02*
X77221599Y-158178000I249999J0D01*
G01*
G37*
%TD.AperFunction*%
%TO.P,R6,1*%
%TO.N,Net-(3SB1-Pad3)*%
%TA.AperFunction,SMDPad,CuDef*%
G36*
G01*
X77221599Y-156353000D02*
X78121601Y-156353000D01*
G75*
G02*
X78371600Y-156602999I0J-249999D01*
G01*
X78371600Y-157128001D01*
G75*
G02*
X78121601Y-157378000I-249999J0D01*
G01*
X77221599Y-157378000D01*
G75*
G02*
X76971600Y-157128001I0J249999D01*
G01*
X76971600Y-156602999D01*
G75*
G02*
X77221599Y-156353000I249999J0D01*
G01*
G37*
%TD.AperFunction*%
%TD*%
%TO.P,R4,2*%
%TO.N,Net-(D1-Pad2)*%
%TA.AperFunction,SMDPad,CuDef*%
G36*
G01*
X77409399Y-148629000D02*
X78309401Y-148629000D01*
G75*
G02*
X78559400Y-148878999I0J-249999D01*
G01*
X78559400Y-149404001D01*
G75*
G02*
X78309401Y-149654000I-249999J0D01*
G01*
X77409399Y-149654000D01*
G75*
G02*
X77159400Y-149404001I0J249999D01*
G01*
X77159400Y-148878999D01*
G75*
G02*
X77409399Y-148629000I249999J0D01*
G01*
G37*
%TD.AperFunction*%
%TO.P,R4,1*%
%TO.N,Net-(3SB1-Pad6)*%
%TA.AperFunction,SMDPad,CuDef*%
G36*
G01*
X77409399Y-146804000D02*
X78309401Y-146804000D01*
G75*
G02*
X78559400Y-147053999I0J-249999D01*
G01*
X78559400Y-147579001D01*
G75*
G02*
X78309401Y-147829000I-249999J0D01*
G01*
X77409399Y-147829000D01*
G75*
G02*
X77159400Y-147579001I0J249999D01*
G01*
X77159400Y-147053999D01*
G75*
G02*
X77409399Y-146804000I249999J0D01*
G01*
G37*
%TD.AperFunction*%
%TD*%
D12*
%TO.P,D1,2*%
%TO.N,Net-(D1-Pad2)*%
X80145400Y-149279000D03*
%TO.P,D1,1*%
%TO.N,Net-(3SB1-Pad6)*%
X80145400Y-147179000D03*
%TD*%
%TO.P,D2,1*%
%TO.N,Net-(3SB1-Pad3)*%
X79957600Y-156728000D03*
%TO.P,D2,2*%
%TO.N,Net-(D1-Pad2)*%
X79957600Y-158828000D03*
%TD*%
%TO.P,D3,1*%
%TO.N,Net-(3SB1-Pad11)*%
X110487000Y-146443000D03*
%TO.P,D3,2*%
%TO.N,Net-(D1-Pad2)*%
X110487000Y-148543000D03*
%TD*%
%TO.P,D4,2*%
%TO.N,Net-(D1-Pad2)*%
X110965000Y-158684000D03*
%TO.P,D4,1*%
%TO.N,Net-(3SB1-Pad8)*%
X110965000Y-156584000D03*
%TD*%
%TO.P,D5,1*%
%TO.N,Net-(3SB2-Pad6)*%
X84911300Y-93432300D03*
%TO.P,D5,2*%
%TO.N,Net-(D1-Pad2)*%
X84911300Y-95532300D03*
%TD*%
%TO.P,D6,1*%
%TO.N,Net-(3SB2-Pad3)*%
X84726700Y-83806700D03*
%TO.P,D6,2*%
%TO.N,Net-(D1-Pad2)*%
X84726700Y-85906700D03*
%TD*%
%TO.P,D7,2*%
%TO.N,Net-(D1-Pad2)*%
X55155700Y-95275100D03*
%TO.P,D7,1*%
%TO.N,Net-(3SB2-Pad11)*%
X55155700Y-93175100D03*
%TD*%
%TO.P,D8,2*%
%TO.N,Net-(D1-Pad2)*%
X55764000Y-84518900D03*
%TO.P,D8,1*%
%TO.N,Net-(3SB2-Pad8)*%
X55764000Y-82418900D03*
%TD*%
D13*
%TO.P,DECODER1,1*%
%TO.N,/~Y0*%
X64592200Y-105537000D03*
D14*
%TO.P,DECODER1,2*%
%TO.N,/~Y1*%
X62052200Y-105537000D03*
%TO.P,DECODER1,3*%
%TO.N,/~Y2*%
X59512200Y-105537000D03*
%TO.P,DECODER1,4*%
%TO.N,/~Y3*%
X56972200Y-105537000D03*
%TO.P,DECODER1,5*%
%TO.N,/~Y4*%
X54432200Y-105537000D03*
%TO.P,DECODER1,6*%
%TO.N,/~Y5*%
X51892200Y-105537000D03*
%TO.P,DECODER1,7*%
%TO.N,/~Y6*%
X49352200Y-105537000D03*
%TO.P,DECODER1,10*%
%TO.N,N/C*%
X49352200Y-113157000D03*
%TO.P,DECODER1,11*%
X51892200Y-113157000D03*
%TO.P,DECODER1,12*%
%TO.N,GND*%
X54432200Y-113157000D03*
%TO.P,DECODER1,13*%
%TO.N,Net-(DECODER1-Pad13)*%
X56972200Y-113157000D03*
%TO.P,DECODER1,14*%
%TO.N,Net-(DECODER1-Pad14)*%
X59512200Y-113157000D03*
%TO.P,DECODER1,15*%
%TO.N,Net-(DECODER1-Pad15)*%
X62052200Y-113157000D03*
%TO.P,DECODER1,16*%
%TO.N,VDD*%
X64592200Y-113157000D03*
%TO.P,DECODER1,8*%
%TO.N,GND*%
X46812200Y-105537000D03*
%TO.P,DECODER1,9*%
%TO.N,/~Y7*%
X46812200Y-113157000D03*
%TD*%
D15*
%TO.P,LED1,5*%
%TO.N,Net-(LED1-Pad5)*%
X62224920Y-125100080D03*
%TO.P,LED1,6*%
%TO.N,Net-(LED1-Pad6)*%
X62224920Y-123830080D03*
%TO.P,LED1,7*%
%TO.N,Net-(LED1-Pad7)*%
X62224920Y-122560080D03*
%TO.P,LED1,8*%
%TO.N,Net-(LED1-Pad8)*%
X62224920Y-121290080D03*
%TO.P,LED1,4*%
%TO.N,Net-(LED1-Pad4)*%
X57324920Y-125100080D03*
%TO.P,LED1,3*%
%TO.N,Net-(LED1-Pad3)*%
X57324920Y-123830080D03*
%TO.P,LED1,2*%
%TO.N,Net-(LED1-Pad2)*%
X57324920Y-122560080D03*
%TO.P,LED1,1*%
%TO.N,Net-(LED1-Pad1)*%
X57324920Y-121290080D03*
%TD*%
%TO.P,LED2,1*%
%TO.N,Net-(LED2-Pad1)*%
X57324920Y-131450080D03*
%TO.P,LED2,2*%
%TO.N,Net-(LED2-Pad2)*%
X57324920Y-132720080D03*
%TO.P,LED2,3*%
%TO.N,Net-(LED2-Pad3)*%
X57324920Y-133990080D03*
%TO.P,LED2,4*%
%TO.N,Net-(LED2-Pad4)*%
X57324920Y-135260080D03*
%TO.P,LED2,8*%
%TO.N,Net-(LED2-Pad8)*%
X62224920Y-131450080D03*
%TO.P,LED2,7*%
%TO.N,Net-(LED2-Pad7)*%
X62224920Y-132720080D03*
%TO.P,LED2,6*%
%TO.N,Net-(LED2-Pad6)*%
X62224920Y-133990080D03*
%TO.P,LED2,5*%
%TO.N,Net-(LED2-Pad5)*%
X62224920Y-135260080D03*
%TD*%
D16*
%TO.P,LED3,1*%
%TO.N,Net-(LED1-Pad2)*%
X70479920Y-120824920D03*
%TO.P,LED3,2*%
%TO.N,Net-(LED3-Pad2)*%
X69209920Y-120824920D03*
%TO.P,LED3,3*%
%TO.N,Net-(LED1-Pad4)*%
X67939920Y-120824920D03*
%TO.P,LED3,4*%
%TO.N,Net-(LED3-Pad4)*%
X66669920Y-120824920D03*
%TO.P,LED3,8*%
%TO.N,Net-(LED3-Pad8)*%
X70479920Y-125724920D03*
%TO.P,LED3,7*%
%TO.N,Net-(LED1-Pad8)*%
X69209920Y-125724920D03*
%TO.P,LED3,6*%
%TO.N,Net-(LED3-Pad6)*%
X67939920Y-125724920D03*
%TO.P,LED3,5*%
%TO.N,Net-(LED1-Pad6)*%
X66669920Y-125724920D03*
%TD*%
%TO.P,LED4,5*%
%TO.N,Net-(LED4-Pad5)*%
X70490080Y-130815080D03*
%TO.P,LED4,6*%
%TO.N,Net-(LED2-Pad5)*%
X69220080Y-130815080D03*
%TO.P,LED4,7*%
%TO.N,Net-(LED4-Pad7)*%
X67950080Y-130815080D03*
%TO.P,LED4,8*%
%TO.N,Net-(LED2-Pad7)*%
X66680080Y-130815080D03*
%TO.P,LED4,4*%
%TO.N,Net-(LED2-Pad3)*%
X70490080Y-135715080D03*
%TO.P,LED4,3*%
%TO.N,Net-(LED4-Pad3)*%
X69220080Y-135715080D03*
%TO.P,LED4,2*%
%TO.N,Net-(LED2-Pad1)*%
X67950080Y-135715080D03*
%TO.P,LED4,1*%
%TO.N,Net-(LED4-Pad1)*%
X66680080Y-135715080D03*
%TD*%
D15*
%TO.P,LED5,5*%
%TO.N,Net-(LED3-Pad6)*%
X80004920Y-125100080D03*
%TO.P,LED5,6*%
%TO.N,Net-(LED5-Pad6)*%
X80004920Y-123830080D03*
%TO.P,LED5,7*%
%TO.N,Net-(LED3-Pad8)*%
X80004920Y-122560080D03*
%TO.P,LED5,8*%
%TO.N,Net-(LED5-Pad8)*%
X80004920Y-121290080D03*
%TO.P,LED5,4*%
%TO.N,Net-(LED5-Pad4)*%
X75104920Y-125100080D03*
%TO.P,LED5,3*%
%TO.N,Net-(LED3-Pad4)*%
X75104920Y-123830080D03*
%TO.P,LED5,2*%
%TO.N,Net-(LED5-Pad2)*%
X75104920Y-122560080D03*
%TO.P,LED5,1*%
%TO.N,Net-(LED3-Pad2)*%
X75104920Y-121290080D03*
%TD*%
%TO.P,LED6,1*%
%TO.N,Net-(LED6-Pad1)*%
X75104920Y-131450080D03*
%TO.P,LED6,2*%
%TO.N,Net-(LED4-Pad1)*%
X75104920Y-132720080D03*
%TO.P,LED6,3*%
%TO.N,Net-(LED6-Pad3)*%
X75104920Y-133990080D03*
%TO.P,LED6,4*%
%TO.N,Net-(LED4-Pad3)*%
X75104920Y-135260080D03*
%TO.P,LED6,8*%
%TO.N,Net-(LED4-Pad7)*%
X80004920Y-131450080D03*
%TO.P,LED6,7*%
%TO.N,Net-(LED6-Pad7)*%
X80004920Y-132720080D03*
%TO.P,LED6,6*%
%TO.N,Net-(LED4-Pad5)*%
X80004920Y-133990080D03*
%TO.P,LED6,5*%
%TO.N,Net-(LED6-Pad5)*%
X80004920Y-135260080D03*
%TD*%
D16*
%TO.P,LED7,1*%
%TO.N,Net-(LED5-Pad2)*%
X88259920Y-120824920D03*
%TO.P,LED7,2*%
%TO.N,Net-(LED7-Pad2)*%
X86989920Y-120824920D03*
%TO.P,LED7,3*%
%TO.N,Net-(LED5-Pad4)*%
X85719920Y-120824920D03*
%TO.P,LED7,4*%
%TO.N,Net-(LED7-Pad4)*%
X84449920Y-120824920D03*
%TO.P,LED7,8*%
%TO.N,Net-(LED7-Pad8)*%
X88259920Y-125724920D03*
%TO.P,LED7,7*%
%TO.N,Net-(LED5-Pad8)*%
X86989920Y-125724920D03*
%TO.P,LED7,6*%
%TO.N,Net-(LED7-Pad6)*%
X85719920Y-125724920D03*
%TO.P,LED7,5*%
%TO.N,Net-(LED5-Pad6)*%
X84449920Y-125724920D03*
%TD*%
%TO.P,LED8,1*%
%TO.N,Net-(LED10-Pad2)*%
X84460080Y-135715080D03*
%TO.P,LED8,2*%
%TO.N,Net-(LED6-Pad1)*%
X85730080Y-135715080D03*
%TO.P,LED8,3*%
%TO.N,Net-(LED10-Pad4)*%
X87000080Y-135715080D03*
%TO.P,LED8,4*%
%TO.N,Net-(LED6-Pad3)*%
X88270080Y-135715080D03*
%TO.P,LED8,8*%
%TO.N,Net-(LED6-Pad7)*%
X84460080Y-130815080D03*
%TO.P,LED8,7*%
%TO.N,Net-(LED10-Pad8)*%
X85730080Y-130815080D03*
%TO.P,LED8,6*%
%TO.N,Net-(LED6-Pad5)*%
X87000080Y-130815080D03*
%TO.P,LED8,5*%
%TO.N,Net-(LED10-Pad6)*%
X88270080Y-130815080D03*
%TD*%
D15*
%TO.P,LED9,5*%
%TO.N,Net-(LED7-Pad6)*%
X97784920Y-125100080D03*
%TO.P,LED9,6*%
%TO.N,Net-(LED10-Pad5)*%
X97784920Y-123830080D03*
%TO.P,LED9,7*%
%TO.N,Net-(LED7-Pad8)*%
X97784920Y-122560080D03*
%TO.P,LED9,8*%
%TO.N,Net-(LED10-Pad7)*%
X97784920Y-121290080D03*
%TO.P,LED9,4*%
%TO.N,Net-(LED10-Pad3)*%
X92884920Y-125100080D03*
%TO.P,LED9,3*%
%TO.N,Net-(LED7-Pad4)*%
X92884920Y-123830080D03*
%TO.P,LED9,2*%
%TO.N,Net-(LED10-Pad1)*%
X92884920Y-122560080D03*
%TO.P,LED9,1*%
%TO.N,Net-(LED7-Pad2)*%
X92884920Y-121290080D03*
%TD*%
%TO.P,LED10,5*%
%TO.N,Net-(LED10-Pad5)*%
X97784920Y-135260080D03*
%TO.P,LED10,6*%
%TO.N,Net-(LED10-Pad6)*%
X97784920Y-133990080D03*
%TO.P,LED10,7*%
%TO.N,Net-(LED10-Pad7)*%
X97784920Y-132720080D03*
%TO.P,LED10,8*%
%TO.N,Net-(LED10-Pad8)*%
X97784920Y-131450080D03*
%TO.P,LED10,4*%
%TO.N,Net-(LED10-Pad4)*%
X92884920Y-135260080D03*
%TO.P,LED10,3*%
%TO.N,Net-(LED10-Pad3)*%
X92884920Y-133990080D03*
%TO.P,LED10,2*%
%TO.N,Net-(LED10-Pad2)*%
X92884920Y-132720080D03*
%TO.P,LED10,1*%
%TO.N,Net-(LED10-Pad1)*%
X92884920Y-131450080D03*
%TD*%
D14*
%TO.P,R1,1*%
%TO.N,VDD*%
X50625000Y-144325000D03*
D17*
%TO.P,R1,2*%
%TO.N,Net-(R1-Pad2)*%
X50625000Y-139245000D03*
%TD*%
D18*
%TO.P,U1,1*%
%TO.N,GND*%
X38100000Y-146507000D03*
%TO.P,U1,2*%
%TO.N,VDD*%
X38100000Y-143967000D03*
%TD*%
%TO.P,U2,1*%
%TO.N,Net-(LED2-Pad2)*%
X38100000Y-137160000D03*
%TO.P,U2,2*%
%TO.N,Net-(LED2-Pad4)*%
X38100000Y-134620000D03*
%TO.P,U2,3*%
%TO.N,Net-(LED2-Pad6)*%
X38100000Y-132080000D03*
%TO.P,U2,4*%
%TO.N,Net-(LED2-Pad8)*%
X38100000Y-129540000D03*
%TO.P,U2,5*%
%TO.N,Net-(LED1-Pad7)*%
X38100000Y-127000000D03*
%TO.P,U2,6*%
%TO.N,Net-(LED1-Pad5)*%
X38100000Y-124460000D03*
%TO.P,U2,7*%
%TO.N,Net-(LED1-Pad3)*%
X38100000Y-121920000D03*
%TO.P,U2,8*%
%TO.N,Net-(LED1-Pad1)*%
X38100000Y-119380000D03*
%TO.P,U2,9*%
%TO.N,N/C*%
X38100000Y-116840000D03*
%TO.P,U2,10*%
%TO.N,Net-(DECODER1-Pad13)*%
X38100000Y-114300000D03*
%TO.P,U2,11*%
%TO.N,Net-(DECODER1-Pad14)*%
X38100000Y-111760000D03*
%TO.P,U2,12*%
%TO.N,Net-(DECODER1-Pad15)*%
X38100000Y-109220000D03*
%TO.P,U2,13*%
%TO.N,Net-(D1-Pad2)*%
X38100000Y-106680000D03*
%TO.P,U2,14*%
%TO.N,Net-(U10-PadINT)*%
X38100000Y-104140000D03*
%TO.P,U2,15*%
%TO.N,Net-(R1-Pad2)*%
X38100000Y-101600000D03*
%TD*%
D19*
%TO.N,Net-(3SB1-Pad3)*%
X89562600Y-108332500D03*
%TO.N,/~Y6*%
X73673600Y-100239200D03*
%TO.N,Net-(LED1-Pad7)*%
X63378100Y-122560000D03*
%TO.N,Net-(LED2-Pad4)*%
X56001900Y-135260000D03*
%TO.N,Net-(LED2-Pad6)*%
X63378100Y-133990000D03*
%TO.N,Net-(LED3-Pad8)*%
X81158100Y-122560000D03*
X71628000Y-125730000D03*
%TO.N,Net-(LED4-Pad5)*%
X81158100Y-133990000D03*
X71622900Y-130815000D03*
%TO.N,Net-(LED7-Pad8)*%
X98938100Y-122560000D03*
X89408000Y-125730000D03*
%TO.N,Net-(LED10-Pad6)*%
X89402900Y-130815000D03*
X99192100Y-133990000D03*
%TO.N,Net-(LED10-Pad5)*%
X98938100Y-123830000D03*
X98938100Y-135260000D03*
%TO.N,Net-(LED10-Pad3)*%
X94742000Y-130810000D03*
X94742000Y-126238000D03*
%TO.N,Net-(LED10-Pad1)*%
X93472000Y-130302000D03*
X94742000Y-124714000D03*
%TD*%
D20*
%TO.N,/~Y0*%
X65717500Y-105537000D02*
X74744900Y-114564400D01*
X74744900Y-114564400D02*
X78219600Y-114564400D01*
X78219600Y-114564400D02*
X78653800Y-114998600D01*
X78653800Y-114998600D02*
X83082300Y-114998600D01*
X83082300Y-114998600D02*
X84739800Y-113341100D01*
X84739800Y-113341100D02*
X84739800Y-111432000D01*
X84739800Y-111432000D02*
X89919700Y-106252100D01*
X89919700Y-106252100D02*
X89909900Y-106242300D01*
X89909900Y-106242300D02*
X89909900Y-105410000D01*
X90347600Y-106680000D02*
X89919700Y-106252100D01*
X64592200Y-105537000D02*
X65717500Y-105537000D01*
X90785200Y-105410000D02*
X89909900Y-105410000D01*
X90785200Y-106680000D02*
X90347600Y-106680000D01*
%TO.N,Net-(3SB1-Pad3)*%
X89562600Y-108332500D02*
X89909900Y-107985200D01*
X89909900Y-107985200D02*
X89909900Y-107950000D01*
X90785200Y-107950000D02*
X89909900Y-107950000D01*
X77671600Y-156865500D02*
X72685500Y-156865500D01*
X72685500Y-156865500D02*
X68220000Y-152400000D01*
X77671800Y-156865700D02*
X77671700Y-156865600D01*
X77671700Y-156865600D02*
X77671600Y-156865600D01*
X77671600Y-156865600D02*
X77671600Y-156865500D01*
X77671800Y-156865700D02*
X77671600Y-156866000D01*
X79957600Y-156728000D02*
X77809100Y-156728000D01*
X77809100Y-156728000D02*
X77671800Y-156865700D01*
%TO.N,/~Y1*%
X62052200Y-105537000D02*
X62052200Y-105775800D01*
X62052200Y-105775800D02*
X71795900Y-115519500D01*
X71795900Y-115519500D02*
X77900900Y-115519500D01*
X77900900Y-115519500D02*
X78280600Y-115899200D01*
X78280600Y-115899200D02*
X83455500Y-115899200D01*
X83455500Y-115899200D02*
X89302400Y-110052300D01*
X89302400Y-110052300D02*
X89909900Y-110052300D01*
X89909900Y-110052300D02*
X89909900Y-109220000D01*
X90347600Y-110490000D02*
X89909900Y-110052300D01*
X90785200Y-109220000D02*
X89909900Y-109220000D01*
X90785200Y-110490000D02*
X90347600Y-110490000D01*
%TO.N,Net-(3SB1-Pad6)*%
X89909900Y-111760000D02*
X89909900Y-113488600D01*
X89909900Y-113488600D02*
X95247600Y-118826300D01*
X95247600Y-118826300D02*
X97119800Y-118826300D01*
X97119800Y-118826300D02*
X100244600Y-121951100D01*
X100244600Y-121951100D02*
X100244600Y-134988900D01*
X100244600Y-134988900D02*
X96008200Y-139225300D01*
X96008200Y-139225300D02*
X88649400Y-139225300D01*
X88649400Y-139225300D02*
X80695700Y-147179000D01*
X80145400Y-147179000D02*
X80695700Y-147179000D01*
X90785200Y-111760000D02*
X89909900Y-111760000D01*
X77859400Y-147316000D02*
X80007900Y-147316000D01*
X80007900Y-147316000D02*
X80145400Y-147179000D01*
X77859400Y-147316000D02*
X70781000Y-147316000D01*
X70781000Y-147316000D02*
X68245000Y-144780000D01*
X77859400Y-147316000D02*
X77859400Y-147316500D01*
%TO.N,GND*%
X75963300Y-113030000D02*
X77322100Y-113030000D01*
X77322100Y-113030000D02*
X78840400Y-114548300D01*
X78840400Y-114548300D02*
X82895700Y-114548300D01*
X82895700Y-114548300D02*
X84289500Y-113154500D01*
X84289500Y-113154500D02*
X84289500Y-109552800D01*
X84289500Y-109552800D02*
X88900000Y-104942300D01*
X88900000Y-104942300D02*
X88900000Y-95250000D01*
X46812200Y-105537000D02*
X57099200Y-95250000D01*
X57099200Y-95250000D02*
X59690000Y-95250000D01*
X54432200Y-113157000D02*
X53288900Y-114300300D01*
X53288900Y-114300300D02*
X46360300Y-114300300D01*
X46360300Y-114300300D02*
X45657800Y-113597800D01*
X45657800Y-113597800D02*
X45657800Y-106691400D01*
X45657800Y-106691400D02*
X46812200Y-105537000D01*
X91660500Y-113030000D02*
X91998300Y-113030000D01*
X91998300Y-113030000D02*
X100694900Y-121726600D01*
X100694900Y-121726600D02*
X100694900Y-135525100D01*
X100694900Y-135525100D02*
X91440000Y-144780000D01*
X90785200Y-113030000D02*
X91660500Y-113030000D01*
X91440000Y-152400000D02*
X91440000Y-144780000D01*
X75088000Y-113030000D02*
X75963300Y-113030000D01*
X72390000Y-88900000D02*
X72390000Y-95250000D01*
%TO.N,Net-(3SB1-Pad8)*%
X108747500Y-156653000D02*
X108679000Y-156722000D01*
X110965000Y-156584000D02*
X108816000Y-156584000D01*
X108816000Y-156584000D02*
X108747500Y-156653000D01*
X108747500Y-156653000D02*
X108679000Y-156721500D01*
X97485200Y-113030000D02*
X98360500Y-113030000D01*
X98360500Y-113030000D02*
X98360500Y-117048100D01*
X98360500Y-117048100D02*
X101145300Y-119832900D01*
X101145300Y-119832900D02*
X101145300Y-136568700D01*
X101145300Y-136568700D02*
X97948700Y-139765300D01*
X97948700Y-139765300D02*
X97948700Y-151288700D01*
X97948700Y-151288700D02*
X99060000Y-152400000D01*
X108679000Y-156721500D02*
X103381500Y-156721500D01*
X103381500Y-156721500D02*
X99060000Y-152400000D01*
%TO.N,/~Y4*%
X74212700Y-105410000D02*
X72291800Y-103489100D01*
X72291800Y-103489100D02*
X56480100Y-103489100D01*
X56480100Y-103489100D02*
X54432200Y-105537000D01*
X75088000Y-106680000D02*
X74212700Y-106680000D01*
X74650400Y-105410000D02*
X74212700Y-105847700D01*
X74212700Y-105847700D02*
X74212700Y-106680000D01*
X74650400Y-105410000D02*
X74212700Y-105410000D01*
X75088000Y-105410000D02*
X74650400Y-105410000D01*
%TO.N,Net-(3SB1-Pad11)*%
X99878100Y-144622300D02*
X101170000Y-143330400D01*
X101170000Y-143330400D02*
X101170000Y-137766500D01*
X101170000Y-137766500D02*
X101578900Y-137357600D01*
X101578900Y-137357600D02*
X101578900Y-136901400D01*
X101578900Y-136901400D02*
X101620300Y-136860000D01*
X101620300Y-136860000D02*
X101620300Y-118414400D01*
X101620300Y-118414400D02*
X101170000Y-117964100D01*
X101170000Y-117964100D02*
X101170000Y-112666300D01*
X101170000Y-112666300D02*
X100052400Y-111548700D01*
X100052400Y-111548700D02*
X100052400Y-110911900D01*
X100052400Y-110911900D02*
X98360500Y-109220000D01*
X99060000Y-144780000D02*
X99720400Y-144780000D01*
X99720400Y-144780000D02*
X99878100Y-144622300D01*
X108201000Y-146580000D02*
X101835700Y-146580000D01*
X101835700Y-146580000D02*
X99878100Y-144622300D01*
X97485200Y-109220000D02*
X98360500Y-109220000D01*
X108201000Y-146580000D02*
X108201000Y-146580500D01*
X110487000Y-146443000D02*
X108338000Y-146443000D01*
X108338000Y-146443000D02*
X108201000Y-146580000D01*
%TO.N,/~Y3*%
X56972200Y-105537000D02*
X62679000Y-111243800D01*
X62679000Y-111243800D02*
X65717500Y-111243800D01*
X65717500Y-111243800D02*
X70823200Y-116349500D01*
X70823200Y-116349500D02*
X84249700Y-116349500D01*
X84249700Y-116349500D02*
X89472300Y-111126900D01*
X89472300Y-111126900D02*
X96609900Y-111126900D01*
X96609900Y-111126900D02*
X97047600Y-110689200D01*
X97047600Y-110689200D02*
X97047600Y-110490000D01*
X96609900Y-111760000D02*
X96609900Y-111126900D01*
X97485200Y-111760000D02*
X96609900Y-111760000D01*
X97485200Y-110490000D02*
X97047600Y-110490000D01*
%TO.N,VDD*%
X81788000Y-105410000D02*
X80912700Y-105410000D01*
X80912700Y-105410000D02*
X80912700Y-101232700D01*
X80912700Y-101232700D02*
X74930000Y-95250000D01*
X98360500Y-105410000D02*
X98360500Y-101029500D01*
X98360500Y-101029500D02*
X104140000Y-95250000D01*
X74930000Y-95250000D02*
X74930000Y-88900000D01*
X88900000Y-152400000D02*
X88900000Y-144780000D01*
X58060000Y-144805000D02*
X58060000Y-152400000D01*
X58085000Y-144780000D02*
X58060000Y-144805000D01*
X50625000Y-144325000D02*
X51105000Y-144805000D01*
X51105000Y-144805000D02*
X58060000Y-144805000D01*
X97485200Y-105410000D02*
X98360500Y-105410000D01*
%TO.N,/~Y7*%
X80912700Y-110490000D02*
X80912700Y-109936000D01*
X80912700Y-109936000D02*
X74015500Y-103038800D01*
X74015500Y-103038800D02*
X52738900Y-103038800D01*
X52738900Y-103038800D02*
X50549900Y-105227800D01*
X50549900Y-105227800D02*
X50549900Y-109419300D01*
X50549900Y-109419300D02*
X46812200Y-113157000D01*
X81350400Y-111760000D02*
X80912700Y-111322300D01*
X80912700Y-111322300D02*
X80912700Y-110490000D01*
X81788000Y-110490000D02*
X80912700Y-110490000D01*
X81788000Y-111760000D02*
X81350400Y-111760000D01*
%TO.N,Net-(3SB2-Pad11)*%
X64770000Y-95250000D02*
X71102200Y-101582200D01*
X71102200Y-101582200D02*
X73274900Y-101582200D01*
X73274900Y-101582200D02*
X80912700Y-109220000D01*
X81788000Y-109220000D02*
X80912700Y-109220000D01*
X55155700Y-93175100D02*
X62695100Y-93175100D01*
X62695100Y-93175100D02*
X64770000Y-95250000D01*
X52869700Y-93312600D02*
X55018200Y-93312600D01*
X55018200Y-93312600D02*
X55155700Y-93175100D01*
%TO.N,Net-(3SB2-Pad8)*%
X55764000Y-82418900D02*
X58288900Y-82418900D01*
X58288900Y-82418900D02*
X64770000Y-88900000D01*
X81788000Y-113030000D02*
X82663400Y-112154600D01*
X82663400Y-112154600D02*
X82663400Y-108830300D01*
X82663400Y-108830300D02*
X82416100Y-108583000D01*
X82416100Y-108583000D02*
X80912600Y-108583000D01*
X80912600Y-108583000D02*
X68724700Y-96395100D01*
X68724700Y-96395100D02*
X66885100Y-96395100D01*
X66885100Y-96395100D02*
X66040000Y-95550000D01*
X66040000Y-95550000D02*
X66040000Y-90170000D01*
X66040000Y-90170000D02*
X64770000Y-88900000D01*
X53414800Y-82556400D02*
X55626500Y-82556400D01*
X55626500Y-82556400D02*
X55764000Y-82418900D01*
%TO.N,Net-(3SB2-Pad6)*%
X75088000Y-111760000D02*
X76689000Y-111760000D01*
X76689000Y-111760000D02*
X79027000Y-114098000D01*
X79027000Y-114098000D02*
X82709100Y-114098000D01*
X82709100Y-114098000D02*
X83783000Y-113024100D01*
X83783000Y-113024100D02*
X83783000Y-109345600D01*
X83783000Y-109345600D02*
X85924900Y-107203700D01*
X85924900Y-107203700D02*
X85924900Y-94145000D01*
X85924900Y-94145000D02*
X85924900Y-93895600D01*
X85924900Y-93895600D02*
X85461600Y-93432300D01*
X85924900Y-94145000D02*
X89341900Y-94145000D01*
X89341900Y-94145000D02*
X90170000Y-94973100D01*
X90170000Y-94973100D02*
X90170000Y-95539100D01*
X90170000Y-95539100D02*
X90977300Y-96346400D01*
X90977300Y-96346400D02*
X92883600Y-96346400D01*
X92883600Y-96346400D02*
X93980000Y-95250000D01*
X84911300Y-93432300D02*
X85461600Y-93432300D01*
X82625300Y-93569800D02*
X84773800Y-93569800D01*
X84773800Y-93569800D02*
X84911300Y-93432300D01*
%TO.N,/~Y6*%
X73673600Y-100239200D02*
X74909600Y-100239200D01*
X74909600Y-100239200D02*
X81350400Y-106680000D01*
X81350400Y-106680000D02*
X81788000Y-107117600D01*
X81788000Y-107117600D02*
X81788000Y-107950000D01*
X81788000Y-106680000D02*
X81350400Y-106680000D01*
%TO.N,Net-(3SB2-Pad3)*%
X85600900Y-87772800D02*
X81590500Y-91783200D01*
X81590500Y-91783200D02*
X81590500Y-94121300D01*
X81590500Y-94121300D02*
X81951500Y-94482300D01*
X81951500Y-94482300D02*
X84847300Y-94482300D01*
X84847300Y-94482300D02*
X85461700Y-95096700D01*
X85461700Y-95096700D02*
X85461700Y-96170500D01*
X85461700Y-96170500D02*
X83332600Y-98299600D01*
X83332600Y-98299600D02*
X83332600Y-112837600D01*
X83332600Y-112837600D02*
X82559800Y-113610400D01*
X82559800Y-113610400D02*
X81043400Y-113610400D01*
X81043400Y-113610400D02*
X75963300Y-108530300D01*
X75963300Y-108530300D02*
X75963300Y-107950000D01*
X84658000Y-83875400D02*
X85600900Y-84818300D01*
X85600900Y-84818300D02*
X85600900Y-87772800D01*
X85600900Y-87772800D02*
X92852800Y-87772800D01*
X92852800Y-87772800D02*
X93980000Y-88900000D01*
X75088000Y-107950000D02*
X75963300Y-107950000D01*
X84658000Y-83875400D02*
X84726700Y-83806700D01*
X82440700Y-83944200D02*
X84589200Y-83944200D01*
X84589200Y-83944200D02*
X84658000Y-83875400D01*
%TO.N,/~Y5*%
X74212700Y-109220000D02*
X68932100Y-103939400D01*
X68932100Y-103939400D02*
X56973800Y-103939400D01*
X56973800Y-103939400D02*
X55557600Y-105355600D01*
X55557600Y-105355600D02*
X55557600Y-106011300D01*
X55557600Y-106011300D02*
X54895500Y-106673400D01*
X54895500Y-106673400D02*
X53028600Y-106673400D01*
X53028600Y-106673400D02*
X51892200Y-105537000D01*
X75088000Y-110490000D02*
X74212700Y-110490000D01*
X74212700Y-110490000D02*
X74212700Y-109220000D01*
X75088000Y-109220000D02*
X74212700Y-109220000D01*
%TO.N,Net-(D1-Pad2)*%
X81099600Y-87419000D02*
X81099600Y-94289400D01*
X81099600Y-94289400D02*
X82205000Y-95394800D01*
X82205000Y-95394800D02*
X82625300Y-95394800D01*
X82749400Y-85769200D02*
X81099600Y-87419000D01*
X81099600Y-87419000D02*
X75358200Y-81677600D01*
X75358200Y-81677600D02*
X52755700Y-81677600D01*
X52755700Y-81677600D02*
X52341200Y-82092100D01*
X52341200Y-82092100D02*
X52341200Y-83307800D01*
X52341200Y-83307800D02*
X53414800Y-84381400D01*
X82749400Y-85769200D02*
X84589200Y-85769200D01*
X84589200Y-85769200D02*
X84726700Y-85906700D01*
X82440700Y-85769200D02*
X82749400Y-85769200D01*
X51831100Y-94099000D02*
X51831100Y-85965100D01*
X51831100Y-85965100D02*
X53414800Y-84381400D01*
X51831100Y-94099000D02*
X50681000Y-94099000D01*
X50681000Y-94099000D02*
X38100000Y-106680000D01*
X52869700Y-95137600D02*
X51831100Y-94099000D01*
X38100000Y-106680000D02*
X36768200Y-108011800D01*
X36768200Y-108011800D02*
X36768200Y-137762100D01*
X36768200Y-137762100D02*
X37509800Y-138503700D01*
X37509800Y-138503700D02*
X49282200Y-138503700D01*
X49282200Y-138503700D02*
X49667900Y-138118000D01*
X49667900Y-138118000D02*
X59629900Y-138118000D01*
X59629900Y-138118000D02*
X64234600Y-142722700D01*
X64234600Y-142722700D02*
X65240800Y-142722700D01*
X65240800Y-142722700D02*
X66975000Y-144456900D01*
X66975000Y-144456900D02*
X66975000Y-145074000D01*
X66975000Y-145074000D02*
X71042500Y-149141500D01*
X71042500Y-149141500D02*
X77859400Y-149141500D01*
X110487000Y-148543000D02*
X111037300Y-148543000D01*
X110965000Y-158684000D02*
X111515300Y-158684000D01*
X111515300Y-158684000D02*
X111515300Y-149021000D01*
X111515300Y-149021000D02*
X111037300Y-148543000D01*
X110965000Y-158684000D02*
X108816000Y-158684000D01*
X108816000Y-158684000D02*
X108747500Y-158615000D01*
X79957600Y-158828000D02*
X80507900Y-158828000D01*
X80145400Y-149279000D02*
X80145400Y-149904300D01*
X80529400Y-158546500D02*
X80529400Y-150288300D01*
X80529400Y-150288300D02*
X80145400Y-149904300D01*
X80507900Y-158828000D02*
X80507900Y-158568000D01*
X80507900Y-158568000D02*
X80529400Y-158546500D01*
X108679000Y-158546500D02*
X80529400Y-158546500D01*
X79957600Y-158828000D02*
X77809100Y-158828000D01*
X77809100Y-158828000D02*
X77671800Y-158690300D01*
X77671800Y-158690300D02*
X77671600Y-158690000D01*
X108747500Y-158615000D02*
X108679000Y-158546500D01*
X82625300Y-95394800D02*
X84773800Y-95394800D01*
X84773800Y-95394800D02*
X84911300Y-95532300D01*
X53414800Y-84381400D02*
X55626500Y-84381400D01*
X55626500Y-84381400D02*
X55764000Y-84518900D01*
X110487000Y-148543000D02*
X108338000Y-148543000D01*
X108338000Y-148543000D02*
X108201000Y-148406000D01*
X77671600Y-158690500D02*
X77671800Y-158690300D01*
X77859400Y-149141500D02*
X77859400Y-149142000D01*
X80145400Y-149279000D02*
X77996900Y-149279000D01*
X77996900Y-149279000D02*
X77859400Y-149142000D01*
X108747500Y-158615000D02*
X108679000Y-158546000D01*
X108201000Y-148406000D02*
X108201000Y-148405500D01*
X52869700Y-95137600D02*
X55018200Y-95137600D01*
X55018200Y-95137600D02*
X55155700Y-95275100D01*
%TO.N,/~Y2*%
X59512200Y-105537000D02*
X60659500Y-104389700D01*
X60659500Y-104389700D02*
X62503100Y-104389700D01*
X62503100Y-104389700D02*
X63179400Y-105066000D01*
X63179400Y-105066000D02*
X63179400Y-106186700D01*
X63179400Y-106186700D02*
X72057200Y-115064500D01*
X72057200Y-115064500D02*
X78082800Y-115064500D01*
X78082800Y-115064500D02*
X78467200Y-115448900D01*
X78467200Y-115448900D02*
X83268900Y-115448900D01*
X83268900Y-115448900D02*
X88480100Y-110237700D01*
X88480100Y-110237700D02*
X88480100Y-108328600D01*
X88480100Y-108328600D02*
X89493700Y-107315000D01*
X89493700Y-107315000D02*
X96609900Y-107315000D01*
X96609900Y-107315000D02*
X96609900Y-107950000D01*
X97047600Y-106680000D02*
X96609900Y-107117700D01*
X96609900Y-107117700D02*
X96609900Y-107315000D01*
X97485200Y-107950000D02*
X96609900Y-107950000D01*
X97485200Y-106680000D02*
X97047600Y-106680000D01*
D21*
%TO.N,Net-(LED1-Pad5)*%
X62224900Y-125100100D02*
X62224900Y-125989000D01*
X62224900Y-125989000D02*
X61468000Y-126746000D01*
X61468000Y-126746000D02*
X55626000Y-126746000D01*
X55626000Y-126746000D02*
X53340000Y-124460000D01*
X53340000Y-124460000D02*
X38100000Y-124460000D01*
X62224900Y-125100000D02*
X62224900Y-125100100D01*
D20*
%TO.N,Net-(LED1-Pad6)*%
X62224900Y-123830100D02*
X62224900Y-123830000D01*
X62235000Y-123820000D02*
X62224900Y-123830000D01*
X66669900Y-125724900D02*
X66669900Y-125725000D01*
X66680100Y-125158000D02*
X66669900Y-125169000D01*
X66669900Y-125169000D02*
X66669900Y-125724900D01*
D21*
X62224900Y-123820000D02*
X62235000Y-123820000D01*
X62235000Y-123820000D02*
X65907900Y-123820000D01*
X65907900Y-123820000D02*
X66680100Y-124592000D01*
X66680100Y-124592000D02*
X66680100Y-125158000D01*
X66680100Y-125158000D02*
X66680100Y-125725000D01*
D20*
%TO.N,Net-(LED1-Pad7)*%
X62225000Y-122560000D02*
X62224900Y-122560100D01*
D21*
X62224900Y-122560000D02*
X62225000Y-122560000D01*
X62225000Y-122560000D02*
X63378100Y-122560000D01*
D20*
X62225000Y-122560000D02*
X62224900Y-122560000D01*
%TO.N,Net-(LED1-Pad8)*%
X62224900Y-121290100D02*
X62224900Y-121290000D01*
X62235000Y-121280000D02*
X62224900Y-121290000D01*
X69209900Y-125724900D02*
X69209900Y-125725000D01*
X69220100Y-125158000D02*
X69209900Y-125169000D01*
X69209900Y-125169000D02*
X69209900Y-125724900D01*
D21*
X62224900Y-121280000D02*
X62235000Y-121280000D01*
X62235000Y-121280000D02*
X64891900Y-121280000D01*
X64891900Y-121280000D02*
X67564000Y-123952000D01*
X67564000Y-123952000D02*
X68580000Y-123952000D01*
X68580000Y-123952000D02*
X69220100Y-124592000D01*
X69220100Y-124592000D02*
X69220100Y-125158000D01*
X69220100Y-125158000D02*
X69220100Y-125725000D01*
D20*
%TO.N,Net-(LED1-Pad4)*%
X57324900Y-125100100D02*
X57324900Y-125100000D01*
X57335000Y-125090000D02*
X57324900Y-125100000D01*
X67939900Y-120824900D02*
X67939900Y-120825000D01*
X67950100Y-120422000D02*
X67939900Y-120433000D01*
X67939900Y-120433000D02*
X67939900Y-120824900D01*
D21*
X57324900Y-125090000D02*
X57335000Y-125090000D01*
X57335000Y-125090000D02*
X59568100Y-125090000D01*
X59568100Y-125090000D02*
X60960000Y-123698000D01*
X60960000Y-123698000D02*
X60960000Y-120396000D01*
X60960000Y-120396000D02*
X61976000Y-119380000D01*
X61976000Y-119380000D02*
X67310000Y-119380000D01*
X67310000Y-119380000D02*
X67950100Y-120020000D01*
X67950100Y-120020000D02*
X67950100Y-120422000D01*
X67950100Y-120422000D02*
X67950100Y-120825000D01*
D20*
%TO.N,Net-(LED1-Pad3)*%
X57324900Y-123830000D02*
X57324900Y-123830100D01*
D21*
X38100000Y-121920000D02*
X52832000Y-121920000D01*
X52832000Y-121920000D02*
X54742100Y-123830000D01*
X54742100Y-123830000D02*
X57324800Y-123830000D01*
X57324800Y-123830000D02*
X57324900Y-123830000D01*
D20*
X57324800Y-123830000D02*
X57324900Y-123830000D01*
%TO.N,Net-(LED1-Pad2)*%
X57324900Y-122560100D02*
X57324900Y-122560000D01*
X57335000Y-122550000D02*
X57324900Y-122560000D01*
X70479900Y-120824900D02*
X70479900Y-120825000D01*
X70490100Y-119914000D02*
X70479900Y-119925000D01*
X70479900Y-119925000D02*
X70479900Y-120824900D01*
D21*
X57324900Y-122550000D02*
X57335000Y-122550000D01*
X57335000Y-122550000D02*
X58806100Y-122550000D01*
X58806100Y-122550000D02*
X59690000Y-121666000D01*
X59690000Y-121666000D02*
X59690000Y-119380000D01*
X59690000Y-119380000D02*
X61214000Y-117856000D01*
X61214000Y-117856000D02*
X69342000Y-117856000D01*
X69342000Y-117856000D02*
X70490100Y-119004000D01*
X70490100Y-119004000D02*
X70490100Y-119914000D01*
X70490100Y-119914000D02*
X70490100Y-120825000D01*
D20*
%TO.N,Net-(LED1-Pad1)*%
X57324900Y-121290000D02*
X57324900Y-121290100D01*
D21*
X38100000Y-119380000D02*
X53340000Y-119380000D01*
X53340000Y-119380000D02*
X55250100Y-121290000D01*
X55250100Y-121290000D02*
X57324800Y-121290000D01*
X57324800Y-121290000D02*
X57324900Y-121290000D01*
D20*
X57324800Y-121290000D02*
X57324900Y-121290000D01*
%TO.N,Net-(LED2-Pad1)*%
X57325000Y-131450000D02*
X57324900Y-131450100D01*
D21*
X67950100Y-135715100D02*
X67950100Y-135715000D01*
X57325000Y-131450000D02*
X59568100Y-131450000D01*
X59568100Y-131450000D02*
X60960000Y-132842000D01*
X60960000Y-132842000D02*
X60960000Y-136144000D01*
X60960000Y-136144000D02*
X61976000Y-137160000D01*
X61976000Y-137160000D02*
X67310000Y-137160000D01*
X67310000Y-137160000D02*
X67950100Y-136520000D01*
X67950100Y-136520000D02*
X67950100Y-135715100D01*
X57324900Y-131450000D02*
X57325000Y-131450000D01*
D20*
X57325000Y-131450000D02*
X57324900Y-131450000D01*
%TO.N,Net-(LED2-Pad2)*%
X57324900Y-132720000D02*
X57324900Y-132720100D01*
D21*
X38100000Y-137160000D02*
X45720000Y-137160000D01*
X45720000Y-137160000D02*
X50159900Y-132720000D01*
X50159900Y-132720000D02*
X57324800Y-132720000D01*
X57324800Y-132720000D02*
X57324900Y-132720000D01*
D20*
X57324800Y-132720000D02*
X57324900Y-132720000D01*
%TO.N,Net-(LED2-Pad3)*%
X57325000Y-133990000D02*
X57324900Y-133990100D01*
D21*
X70490100Y-135715100D02*
X70490100Y-135715000D01*
X57325000Y-133990000D02*
X58806100Y-133990000D01*
X58806100Y-133990000D02*
X59690000Y-134874000D01*
X59690000Y-134874000D02*
X59690000Y-137160000D01*
X59690000Y-137160000D02*
X61214000Y-138684000D01*
X61214000Y-138684000D02*
X69342000Y-138684000D01*
X69342000Y-138684000D02*
X70490100Y-137536000D01*
X70490100Y-137536000D02*
X70490100Y-135715100D01*
X57324900Y-133990000D02*
X57325000Y-133990000D01*
D20*
X57325000Y-133990000D02*
X57324900Y-133990000D01*
%TO.N,Net-(LED2-Pad4)*%
X57324900Y-135260000D02*
X57324900Y-135260100D01*
D21*
X57324900Y-135260000D02*
X57324800Y-135260000D01*
X57324800Y-135260000D02*
X56001900Y-135260000D01*
D20*
X57324800Y-135260000D02*
X57324900Y-135260000D01*
%TO.N,Net-(LED2-Pad8)*%
X62224900Y-131450000D02*
X62224900Y-131450100D01*
D21*
X38100000Y-129540000D02*
X61722000Y-129540000D01*
X61722000Y-129540000D02*
X62224900Y-130043000D01*
X62224900Y-130043000D02*
X62224900Y-131450000D01*
D20*
%TO.N,Net-(LED2-Pad7)*%
X62225000Y-132720000D02*
X62224900Y-132720100D01*
D21*
X66680100Y-130815100D02*
X66680100Y-130815000D01*
X62225000Y-132720000D02*
X66161900Y-132720000D01*
X66161900Y-132720000D02*
X66680100Y-132202000D01*
X66680100Y-132202000D02*
X66680100Y-130815100D01*
X62224900Y-132720000D02*
X62225000Y-132720000D01*
D20*
X62225000Y-132720000D02*
X62224900Y-132720000D01*
%TO.N,Net-(LED2-Pad6)*%
X62225000Y-133990000D02*
X62224900Y-133990100D01*
D21*
X62224900Y-133990000D02*
X62225000Y-133990000D01*
X62225000Y-133990000D02*
X63378100Y-133990000D01*
D20*
X62225000Y-133990000D02*
X62224900Y-133990000D01*
%TO.N,Net-(LED2-Pad5)*%
X62225000Y-135260000D02*
X62224900Y-135260100D01*
X69220100Y-130815100D02*
X69220100Y-130815000D01*
X69220100Y-131175000D02*
X69220100Y-130815100D01*
D21*
X62224900Y-135260000D02*
X62225000Y-135260000D01*
X62225000Y-135260000D02*
X64891900Y-135260000D01*
X64891900Y-135260000D02*
X67564000Y-132588000D01*
X67564000Y-132588000D02*
X68580000Y-132588000D01*
X68580000Y-132588000D02*
X69220100Y-131948000D01*
X69220100Y-131948000D02*
X69220100Y-131175000D01*
D20*
X62225000Y-135260000D02*
X62224900Y-135260000D01*
%TO.N,Net-(LED3-Pad2)*%
X75094800Y-121280000D02*
X75104900Y-121290000D01*
X75104900Y-121290000D02*
X75104900Y-121290100D01*
X69209900Y-120825000D02*
X69209900Y-120824900D01*
X69220100Y-121250000D02*
X69209900Y-121240000D01*
X69209900Y-121240000D02*
X69209900Y-120825000D01*
D21*
X69220100Y-120825000D02*
X69220100Y-121250000D01*
X69220100Y-121250000D02*
X69220100Y-121675000D01*
X69220100Y-121675000D02*
X69465400Y-121920000D01*
X69465400Y-121920000D02*
X71882000Y-121920000D01*
X71882000Y-121920000D02*
X72522100Y-121280000D01*
X72522100Y-121280000D02*
X75094800Y-121280000D01*
X75094800Y-121280000D02*
X75104900Y-121280000D01*
D20*
%TO.N,Net-(LED3-Pad4)*%
X75094800Y-123820000D02*
X75104900Y-123830000D01*
X75104900Y-123830000D02*
X75104900Y-123830100D01*
X66669900Y-120825000D02*
X66669900Y-120824900D01*
X66680100Y-121250000D02*
X66669900Y-121240000D01*
X66669900Y-121240000D02*
X66669900Y-120825000D01*
D21*
X75094800Y-123820000D02*
X75104900Y-123820000D01*
X66680100Y-120825000D02*
X66680100Y-121250000D01*
X66680100Y-121250000D02*
X66680100Y-121675000D01*
X66680100Y-121675000D02*
X67687400Y-122682000D01*
X67687400Y-122682000D02*
X71882000Y-122682000D01*
X71882000Y-122682000D02*
X73019900Y-123820000D01*
X73019900Y-123820000D02*
X75094800Y-123820000D01*
D20*
%TO.N,Net-(LED3-Pad8)*%
X80005000Y-122560000D02*
X80004900Y-122560100D01*
X70479900Y-125725000D02*
X70479900Y-125724900D01*
X70479900Y-125725000D02*
X70479900Y-125730000D01*
D21*
X80004900Y-122560000D02*
X80005000Y-122560000D01*
X80005000Y-122560000D02*
X81158100Y-122560000D01*
D20*
X80005000Y-122560000D02*
X80004900Y-122560000D01*
D21*
X70474800Y-125730000D02*
X70479900Y-125730000D01*
X70479900Y-125730000D02*
X71628000Y-125730000D01*
D20*
%TO.N,Net-(LED3-Pad6)*%
X67939900Y-125725000D02*
X67939900Y-125724900D01*
D21*
X67939900Y-125725000D02*
X67939900Y-126575000D01*
X67939900Y-126575000D02*
X68365300Y-127000000D01*
X68365300Y-127000000D02*
X79248000Y-127000000D01*
X79248000Y-127000000D02*
X80004900Y-126243000D01*
X80004900Y-126243000D02*
X80004900Y-125100100D01*
X80004900Y-125100100D02*
X80004900Y-125100000D01*
D20*
%TO.N,Net-(LED4-Pad1)*%
X66680100Y-135715000D02*
X66680100Y-135715100D01*
D21*
X66680100Y-135715000D02*
X66680100Y-134865000D01*
X66680100Y-134865000D02*
X67687400Y-133858000D01*
X67687400Y-133858000D02*
X71882000Y-133858000D01*
X71882000Y-133858000D02*
X73019900Y-132720000D01*
X73019900Y-132720000D02*
X75104800Y-132720000D01*
D20*
X75104900Y-132720000D02*
X75104900Y-132720100D01*
D21*
X75104800Y-132720000D02*
X75104900Y-132720000D01*
D20*
X75104800Y-132720000D02*
X75104900Y-132720000D01*
%TO.N,Net-(LED4-Pad3)*%
X69220100Y-135715000D02*
X69220100Y-135715100D01*
D21*
X69220100Y-135715000D02*
X69220100Y-134865000D01*
X69220100Y-134865000D02*
X69465400Y-134620000D01*
X69465400Y-134620000D02*
X71882000Y-134620000D01*
X71882000Y-134620000D02*
X72522100Y-135260000D01*
X72522100Y-135260000D02*
X75104800Y-135260000D01*
D20*
X75104900Y-135260000D02*
X75104900Y-135260100D01*
D21*
X75104800Y-135260000D02*
X75104900Y-135260000D01*
D20*
X75104800Y-135260000D02*
X75104900Y-135260000D01*
%TO.N,Net-(LED4-Pad7)*%
X67950100Y-130815000D02*
X67950100Y-130815100D01*
D21*
X67950100Y-130815000D02*
X67950100Y-129965000D01*
X67950100Y-129965000D02*
X68375400Y-129540000D01*
X68375400Y-129540000D02*
X79502000Y-129540000D01*
X79502000Y-129540000D02*
X80004900Y-130043000D01*
X80004900Y-130043000D02*
X80004900Y-131450000D01*
D20*
X80004900Y-131450000D02*
X80004900Y-131450100D01*
%TO.N,Net-(LED4-Pad5)*%
X70490200Y-130815000D02*
X70490100Y-130815100D01*
X80005000Y-133990000D02*
X80004900Y-133990100D01*
D21*
X80004900Y-133990000D02*
X80005000Y-133990000D01*
X80005000Y-133990000D02*
X81158100Y-133990000D01*
D20*
X80005000Y-133990000D02*
X80004900Y-133990000D01*
D21*
X70490100Y-130815000D02*
X70490200Y-130815000D01*
X70490200Y-130815000D02*
X71622900Y-130815000D01*
D20*
X70490200Y-130815000D02*
X70490100Y-130815000D01*
%TO.N,Net-(LED5-Pad6)*%
X80004900Y-123830100D02*
X80004900Y-123830000D01*
X80015000Y-123820000D02*
X80004900Y-123830000D01*
X84449900Y-125724900D02*
X84449900Y-125725000D01*
X84460100Y-125158000D02*
X84449900Y-125169000D01*
X84449900Y-125169000D02*
X84449900Y-125724900D01*
D21*
X80004900Y-123820000D02*
X80015000Y-123820000D01*
X80015000Y-123820000D02*
X83687900Y-123820000D01*
X83687900Y-123820000D02*
X84460100Y-124592000D01*
X84460100Y-124592000D02*
X84460100Y-125158000D01*
X84460100Y-125158000D02*
X84460100Y-125725000D01*
D20*
%TO.N,Net-(LED5-Pad8)*%
X80004900Y-121290100D02*
X80004900Y-121290000D01*
X80015000Y-121280000D02*
X80004900Y-121290000D01*
X86989900Y-125724900D02*
X86989900Y-125725000D01*
X87000100Y-125158000D02*
X86989900Y-125169000D01*
X86989900Y-125169000D02*
X86989900Y-125724900D01*
D21*
X80004900Y-121280000D02*
X80015000Y-121280000D01*
X80015000Y-121280000D02*
X82671900Y-121280000D01*
X82671900Y-121280000D02*
X85344000Y-123952000D01*
X85344000Y-123952000D02*
X86360000Y-123952000D01*
X86360000Y-123952000D02*
X87000100Y-124592000D01*
X87000100Y-124592000D02*
X87000100Y-125158000D01*
X87000100Y-125158000D02*
X87000100Y-125725000D01*
D20*
%TO.N,Net-(LED5-Pad4)*%
X75104900Y-125100100D02*
X75104900Y-125100000D01*
X75115000Y-125090000D02*
X75104900Y-125100000D01*
X85719900Y-120824900D02*
X85719900Y-120825000D01*
X85730100Y-120422000D02*
X85719900Y-120433000D01*
X85719900Y-120433000D02*
X85719900Y-120824900D01*
D21*
X75104900Y-125090000D02*
X75115000Y-125090000D01*
X75115000Y-125090000D02*
X77348100Y-125090000D01*
X77348100Y-125090000D02*
X78740000Y-123698000D01*
X78740000Y-123698000D02*
X78740000Y-120396000D01*
X78740000Y-120396000D02*
X79756000Y-119380000D01*
X79756000Y-119380000D02*
X85090000Y-119380000D01*
X85090000Y-119380000D02*
X85730100Y-120020000D01*
X85730100Y-120020000D02*
X85730100Y-120422000D01*
X85730100Y-120422000D02*
X85730100Y-120825000D01*
D20*
%TO.N,Net-(LED5-Pad2)*%
X75104900Y-122560100D02*
X75104900Y-122560000D01*
X75115000Y-122550000D02*
X75104900Y-122560000D01*
X88259900Y-120824900D02*
X88259900Y-120825000D01*
X88270100Y-119914000D02*
X88259900Y-119925000D01*
X88259900Y-119925000D02*
X88259900Y-120824900D01*
D21*
X88270100Y-119914000D02*
X88270100Y-120825000D01*
X75104900Y-122550000D02*
X75115000Y-122550000D01*
X75115000Y-122550000D02*
X76586100Y-122550000D01*
X76586100Y-122550000D02*
X77470000Y-121666000D01*
X77470000Y-121666000D02*
X77470000Y-119380000D01*
X77470000Y-119380000D02*
X78994000Y-117856000D01*
X78994000Y-117856000D02*
X87122000Y-117856000D01*
X87122000Y-117856000D02*
X88270100Y-119004000D01*
X88270100Y-119004000D02*
X88270100Y-119914000D01*
D20*
%TO.N,Net-(LED6-Pad5)*%
X80005000Y-135260000D02*
X80004900Y-135260100D01*
D21*
X87000100Y-130815100D02*
X87000100Y-130815000D01*
X80005000Y-135260000D02*
X82671900Y-135260000D01*
X82671900Y-135260000D02*
X85344000Y-132588000D01*
X85344000Y-132588000D02*
X86360000Y-132588000D01*
X86360000Y-132588000D02*
X87000100Y-131948000D01*
X87000100Y-131948000D02*
X87000100Y-130815100D01*
X80004900Y-135260000D02*
X80005000Y-135260000D01*
D20*
X80005000Y-135260000D02*
X80004900Y-135260000D01*
%TO.N,Net-(LED6-Pad7)*%
X80005000Y-132720000D02*
X80004900Y-132720100D01*
D21*
X84460100Y-130815100D02*
X84460100Y-130815000D01*
X80005000Y-132720000D02*
X83687900Y-132720000D01*
X83687900Y-132720000D02*
X84460100Y-131948000D01*
X84460100Y-131948000D02*
X84460100Y-130815100D01*
X80004900Y-132720000D02*
X80005000Y-132720000D01*
D20*
X80005000Y-132720000D02*
X80004900Y-132720000D01*
%TO.N,Net-(LED6-Pad3)*%
X75105000Y-133990000D02*
X75104900Y-133990100D01*
D21*
X88270100Y-135715100D02*
X88270100Y-135715000D01*
X75105000Y-133990000D02*
X76586100Y-133990000D01*
X76586100Y-133990000D02*
X77470000Y-134874000D01*
X77470000Y-134874000D02*
X77470000Y-137160000D01*
X77470000Y-137160000D02*
X78994000Y-138684000D01*
X78994000Y-138684000D02*
X87122000Y-138684000D01*
X87122000Y-138684000D02*
X88270100Y-137536000D01*
X88270100Y-137536000D02*
X88270100Y-135715100D01*
X75104900Y-133990000D02*
X75105000Y-133990000D01*
D20*
X75105000Y-133990000D02*
X75104900Y-133990000D01*
%TO.N,Net-(LED6-Pad1)*%
X75105000Y-131450000D02*
X75104900Y-131450100D01*
D21*
X85730100Y-135715100D02*
X85730100Y-135715000D01*
X75105000Y-131450000D02*
X77348100Y-131450000D01*
X77348100Y-131450000D02*
X78740000Y-132842000D01*
X78740000Y-132842000D02*
X78740000Y-136144000D01*
X78740000Y-136144000D02*
X79756000Y-137160000D01*
X79756000Y-137160000D02*
X85090000Y-137160000D01*
X85090000Y-137160000D02*
X85730100Y-136520000D01*
X85730100Y-136520000D02*
X85730100Y-135715100D01*
X75104900Y-131450000D02*
X75105000Y-131450000D01*
D20*
X75105000Y-131450000D02*
X75104900Y-131450000D01*
%TO.N,Net-(LED7-Pad2)*%
X92874800Y-121280000D02*
X92884900Y-121290000D01*
X92884900Y-121290000D02*
X92884900Y-121290100D01*
X86989900Y-120825000D02*
X86989900Y-120824900D01*
X87000100Y-121250000D02*
X86989900Y-121240000D01*
X86989900Y-121240000D02*
X86989900Y-120825000D01*
D21*
X87000100Y-120825000D02*
X87000100Y-121250000D01*
X87000100Y-121250000D02*
X87000100Y-121675000D01*
X87000100Y-121675000D02*
X87245400Y-121920000D01*
X87245400Y-121920000D02*
X89662000Y-121920000D01*
X89662000Y-121920000D02*
X90302100Y-121280000D01*
X90302100Y-121280000D02*
X92874800Y-121280000D01*
X92874800Y-121280000D02*
X92884900Y-121280000D01*
D20*
%TO.N,Net-(LED7-Pad4)*%
X92874800Y-123820000D02*
X92884900Y-123830000D01*
X92884900Y-123830000D02*
X92884900Y-123830100D01*
X84449900Y-120825000D02*
X84449900Y-120824900D01*
X84460100Y-121250000D02*
X84449900Y-121240000D01*
X84449900Y-121240000D02*
X84449900Y-120825000D01*
D21*
X84460100Y-120825000D02*
X84460100Y-121250000D01*
X84460100Y-121250000D02*
X84460100Y-121675000D01*
X84460100Y-121675000D02*
X85467400Y-122682000D01*
X85467400Y-122682000D02*
X89662000Y-122682000D01*
X89662000Y-122682000D02*
X90799900Y-123820000D01*
X90799900Y-123820000D02*
X92874800Y-123820000D01*
X92874800Y-123820000D02*
X92884900Y-123820000D01*
D20*
%TO.N,Net-(LED7-Pad8)*%
X97785000Y-122560000D02*
X97784900Y-122560100D01*
X88259900Y-125725000D02*
X88259900Y-125724900D01*
X88259900Y-125725000D02*
X88259900Y-125730000D01*
D21*
X97784900Y-122560000D02*
X97785000Y-122560000D01*
X97785000Y-122560000D02*
X98938100Y-122560000D01*
D20*
X97785000Y-122560000D02*
X97784900Y-122560000D01*
D21*
X88254800Y-125730000D02*
X88259900Y-125730000D01*
X88259900Y-125730000D02*
X89408000Y-125730000D01*
D20*
%TO.N,Net-(LED7-Pad6)*%
X85719900Y-125725000D02*
X85719900Y-125724900D01*
D21*
X85719900Y-125725000D02*
X85719900Y-126575000D01*
X85719900Y-126575000D02*
X86145300Y-127000000D01*
X86145300Y-127000000D02*
X97028000Y-127000000D01*
X97028000Y-127000000D02*
X97784900Y-126243000D01*
X97784900Y-126243000D02*
X97784900Y-125100100D01*
X97784900Y-125100100D02*
X97784900Y-125100000D01*
D20*
%TO.N,Net-(LED10-Pad2)*%
X92884900Y-132720000D02*
X92884900Y-132720100D01*
X84460100Y-135715000D02*
X84460100Y-135715100D01*
D21*
X84460100Y-135715000D02*
X84460100Y-134865000D01*
X84460100Y-134865000D02*
X85467400Y-133858000D01*
X85467400Y-133858000D02*
X89662000Y-133858000D01*
X89662000Y-133858000D02*
X90799900Y-132720000D01*
X90799900Y-132720000D02*
X92884800Y-132720000D01*
X92884800Y-132720000D02*
X92884900Y-132720000D01*
D20*
X92884800Y-132720000D02*
X92884900Y-132720000D01*
%TO.N,Net-(LED10-Pad4)*%
X92884900Y-135260000D02*
X92884900Y-135260100D01*
X87000100Y-135715000D02*
X87000100Y-135715100D01*
D21*
X87000100Y-135715000D02*
X87000100Y-134865000D01*
X87000100Y-134865000D02*
X87245400Y-134620000D01*
X87245400Y-134620000D02*
X89662000Y-134620000D01*
X89662000Y-134620000D02*
X90302100Y-135260000D01*
X90302100Y-135260000D02*
X92884800Y-135260000D01*
X92884800Y-135260000D02*
X92884900Y-135260000D01*
D20*
X92884800Y-135260000D02*
X92884900Y-135260000D01*
%TO.N,Net-(LED10-Pad8)*%
X97784900Y-131450000D02*
X97784900Y-131450100D01*
D21*
X85730100Y-130815000D02*
X85730100Y-129965000D01*
X85730100Y-129965000D02*
X86155400Y-129540000D01*
X86155400Y-129540000D02*
X97282000Y-129540000D01*
X97282000Y-129540000D02*
X97784900Y-130043000D01*
X97784900Y-130043000D02*
X97784900Y-131450000D01*
D20*
X85730100Y-130815000D02*
X85730100Y-130815100D01*
%TO.N,Net-(LED10-Pad6)*%
X88270200Y-130815000D02*
X88270100Y-130815100D01*
X97785000Y-133990000D02*
X97784900Y-133990100D01*
D21*
X97784900Y-133990000D02*
X97785000Y-133990000D01*
X97785000Y-133990000D02*
X99192100Y-133990000D01*
D20*
X97785000Y-133990000D02*
X97784900Y-133990000D01*
D21*
X88270100Y-130815000D02*
X88270200Y-130815000D01*
X88270200Y-130815000D02*
X89402900Y-130815000D01*
D20*
X88270200Y-130815000D02*
X88270100Y-130815000D01*
%TO.N,Net-(LED10-Pad5)*%
X97785000Y-135260000D02*
X97784900Y-135260100D01*
X97785000Y-123830000D02*
X97784900Y-123830100D01*
D21*
X97784900Y-123830000D02*
X97785000Y-123830000D01*
X97785000Y-123830000D02*
X98938100Y-123830000D01*
D20*
X97785000Y-123830000D02*
X97784900Y-123830000D01*
D21*
X97784900Y-135260000D02*
X97785000Y-135260000D01*
X97785000Y-135260000D02*
X98938100Y-135260000D01*
D20*
X97785000Y-135260000D02*
X97784900Y-135260000D01*
%TO.N,Net-(LED10-Pad7)*%
X97785000Y-121290000D02*
X97784900Y-121290100D01*
X97785000Y-132720000D02*
X97784900Y-132720100D01*
D21*
X97785000Y-132720000D02*
X97784900Y-132720000D01*
D20*
X97785000Y-132720000D02*
X97784900Y-132720000D01*
D21*
X97784900Y-121290000D02*
X97785000Y-121290000D01*
X97785000Y-121290000D02*
X98777900Y-121290000D01*
X98777900Y-121290000D02*
X99687900Y-122200000D01*
X99687900Y-122200000D02*
X99687900Y-131667000D01*
X99687900Y-131667000D02*
X98634600Y-132720000D01*
X98634600Y-132720000D02*
X97785000Y-132720000D01*
D20*
X97785000Y-121290000D02*
X97784900Y-121290000D01*
%TO.N,Net-(LED10-Pad3)*%
X92885000Y-133990000D02*
X92884900Y-133990100D01*
D21*
X92884900Y-125100100D02*
X92884900Y-125100000D01*
X94742000Y-126238000D02*
X93218000Y-126238000D01*
X93218000Y-126238000D02*
X92884900Y-125905000D01*
X92884900Y-125905000D02*
X92884900Y-125100100D01*
X92884900Y-133990000D02*
X92885000Y-133990000D01*
X92885000Y-133990000D02*
X93734600Y-133990000D01*
X93734600Y-133990000D02*
X94742000Y-132983000D01*
X94742000Y-132983000D02*
X94742000Y-130810000D01*
D20*
X92885000Y-133990000D02*
X92884900Y-133990000D01*
%TO.N,Net-(LED10-Pad1)*%
X92885000Y-122560000D02*
X92884900Y-122560100D01*
X92884900Y-131450000D02*
X92884900Y-131450100D01*
D21*
X92884900Y-131450000D02*
X92884900Y-130889000D01*
X92884900Y-130889000D02*
X93472000Y-130302000D01*
X92885000Y-122560000D02*
X92884900Y-122560000D01*
X94742000Y-124714000D02*
X94742000Y-123567000D01*
X94742000Y-123567000D02*
X93734600Y-122560000D01*
X93734600Y-122560000D02*
X92885000Y-122560000D01*
D20*
X92885000Y-122560000D02*
X92884900Y-122560000D01*
%TO.N,Net-(R1-Pad2)*%
X65680000Y-144805000D02*
X65680000Y-152400000D01*
X65705000Y-144780000D02*
X65680000Y-144805000D01*
X50625000Y-139245000D02*
X60120000Y-139245000D01*
X60120000Y-139245000D02*
X65680000Y-144805000D01*
X67310000Y-95250000D02*
X67310000Y-88900000D01*
X96520000Y-95250000D02*
X96520000Y-88900000D01*
X96520000Y-144780000D02*
X96520000Y-152400000D01*
%TO.N,Net-(U10-PadINT)*%
X101600000Y-144780000D02*
X102118000Y-144262000D01*
X102118000Y-144262000D02*
X102118000Y-110018400D01*
X102118000Y-110018400D02*
X98090000Y-105990400D01*
X98090000Y-105990400D02*
X96782700Y-105990400D01*
X96782700Y-105990400D02*
X95250000Y-104457700D01*
X95250000Y-104457700D02*
X95250000Y-94909200D01*
X95250000Y-94909200D02*
X94484100Y-94143300D01*
X94484100Y-94143300D02*
X91440000Y-94143300D01*
X91440000Y-94143300D02*
X91440000Y-88900000D01*
X91440000Y-95250000D02*
X91440000Y-94143300D01*
%TD*%
M02*
